<?plantuml 1.2026.2?><svg xmlns="http://www.w3.org/2000/svg" xmlns:xlink="http://www.w3.org/1999/xlink" contentStyleType="text/css" data-diagram-type="DESCRIPTION" height="1561px" preserveAspectRatio="none" style="width:1354px;height:1561px;background:#FEFEFE;" version="1.1" viewBox="0 0 1354 1561" width="1354px" zoomAndPan="magnify"><title>Cyber Range Network Topology</title><defs/><g><rect fill="#FEFEFE" height="1561" style="stroke:none;stroke-width:1;" width="1354" x="0" y="0"/><g class="title" data-source-line="3"><text fill="#000000" font-family="Verdana" font-size="22" font-weight="bold" lengthAdjust="spacing" textLength="391.5957" x="476.7771" y="35.4209">Cyber Range Network Topology</text></g><!--cluster internet--><g class="cluster" data-qualified-name="internet" data-source-line="8" id="ent0002"><path d="M760.2273,70.9517 C762.5815,63.6078 768.7622,61.6041 774.0418,68.0132 C776.6181,61.4633 780.7345,60.9111 785.164,66.2845 C788.1591,58.2435 792.7391,58.2526 798.5778,63.3902 C804.9506,57.6094 809.1506,58.5635 812.3186,66.5815 C817.0051,60.6289 823.6716,61.3506 825.8988,69.0312 C836.4563,62.576 842.9646,65.1645 844.15,77.9304 C845.0224,77.7049 845.5604,78.2173 845.2335,79.1014 C852.1851,80.7595 853.5273,86.6011 847.8265,91.0133 C854.5227,94.2733 855.3049,99.935 849.3427,104.6069 C855.8053,107.5977 856.2338,112.3721 850.359,116.4241 C856.6885,119.4351 857.8658,125.0822 851.4587,129.1903 C856.5348,133.7733 855.6066,137.9325 849.6955,140.8547 C853.9518,145.0186 853.8455,148.3469 848.9396,151.8828 C854.4698,156.8035 853.9753,163.9361 845.8549,165.8398 C852.2057,176.3166 849.4163,182.0724 837.15,183.2304 C838.1156,183.3495 838.4245,183.9066 837.8709,184.7475 C832.6042,190.8719 828.4679,190.4654 824.1659,183.7202 C820.9087,190.1788 815.2263,190.0187 811.5185,184.1837 C808.83,190.3358 802.7376,191.0238 798.4423,186.0768 C795.253,191.0378 789.8453,190.5112 787.2539,185.4118 C782.6626,192.408 776.5966,190.8911 773.3371,184.0704 C762.0699,192.6383 756.0126,187.6731 752.15,176.2304 C753.4155,175.9993 754.4143,176.6993 753.9355,178.118 C746.981,175.6911 744.9815,170.6557 750.5279,164.9851 C744.6091,162.5553 744.9044,157.0301 749.6486,153.7647 C743.0203,151.0039 740.3879,146.8562 746.2436,140.8132 C739.8998,138.3773 738.2212,132.7854 743.4764,127.8698 C738.3249,122.8935 741.0409,117.8152 747.2548,116.675 C740.5466,111.7215 741.5194,106.4576 748.6112,102.8588 C743.5189,97.9977 745.5017,94.5207 751.0915,92.1288 C742.6855,81.3885 746.4127,73.6332 759.15,70.9304 C759.5027,70.4646 759.8941,70.4318 760.2273,70.9517" fill="#FFFFFF" style="stroke:#000000;stroke-width:1;"/><text fill="#000000" font-family="Verdana" font-size="14" font-weight="bold" lengthAdjust="spacing" textLength="64.4219" x="765.9391" y="88.9255">Internet</text></g><!--cluster vps--><g class="cluster" data-qualified-name="vps" data-source-line="12" id="ent0004"><rect fill="#FFFFFF" height="1202.49" rx="2.5" ry="2.5" style="stroke:#000000;stroke-width:1;" width="936" x="412.15" y="240.2304"/><path d="M616.2223,240.2304 L616.2223,249.5273 L606.2223,259.5273 L412.15,259.5273" fill="none" style="stroke:#000000;stroke-width:1;"/><text fill="#000000" font-family="Verdana" font-size="14" font-weight="bold" lengthAdjust="spacing" textLength="194.0723" x="415.15" y="254.2255">VPS Host (UFW Firewall)</text></g><!--cluster dmz--><g class="cluster" data-qualified-name="vps.dmz" data-source-line="14" id="ent0005"><path d="M597.65,283.2304 L705.899,283.2304 A3.75,3.75 0 0 1 708.399,285.7304 L715.399,321.8242 L859.65,321.8242 A2.5,2.5 0 0 1 862.15,324.3242 L862.15,562.5104 A2.5,2.5 0 0 1 859.65,565.0104 L597.65,565.0104 A2.5,2.5 0 0 1 595.15,562.5104 L595.15,285.7304 A2.5,2.5 0 0 1 597.65,283.2304" fill="#ADD8E6" style="stroke:#000000;stroke-width:1;"/><line style="stroke:#000000;stroke-width:1;" x1="595.15" x2="715.399" y1="321.8242" y2="321.8242"/><text fill="#000000" font-family="Verdana" font-size="14" font-weight="bold" lengthAdjust="spacing" textLength="107.249" x="599.15" y="298.2255">DMZ Network</text><text fill="#000000" font-family="Verdana" font-size="14" font-weight="bold" lengthAdjust="spacing" textLength="98.998" x="603.2755" y="314.5224">10.10.1.0/24</text></g><!--cluster app--><g class="cluster" data-qualified-name="vps.app" data-source-line="20" id="ent0009"><path d="M452.65,614.0104 L556.0729,614.0104 A3.75,3.75 0 0 1 558.5729,616.5104 L565.5729,652.6042 L859.65,652.6042 A2.5,2.5 0 0 1 862.15,655.1042 L862.15,893.2904 A2.5,2.5 0 0 1 859.65,895.7904 L452.65,895.7904 A2.5,2.5 0 0 1 450.15,893.2904 L450.15,616.5104 A2.5,2.5 0 0 1 452.65,614.0104" fill="#90EE90" style="stroke:#000000;stroke-width:1;"/><line style="stroke:#000000;stroke-width:1;" x1="450.15" x2="565.5729" y1="652.6042" y2="652.6042"/><text fill="#000000" font-family="Verdana" font-size="14" font-weight="bold" lengthAdjust="spacing" textLength="102.4229" x="454.15" y="629.0055">App Network</text><text fill="#000000" font-family="Verdana" font-size="14" font-weight="bold" lengthAdjust="spacing" textLength="98.998" x="455.8624" y="645.3024">10.10.2.0/24</text></g><!--cluster internal--><g class="cluster" data-qualified-name="vps.internal" data-source-line="28" id="ent0015"><path d="M446.65,952.7904 L581.6754,952.7904 A3.75,3.75 0 0 1 584.1754,955.2904 L591.1754,1007.6811 L866.65,1007.6811 A2.5,2.5 0 0 1 869.15,1010.1811 L869.15,1276.6304 A2.5,2.5 0 0 1 866.65,1279.1304 L446.65,1279.1304 A2.5,2.5 0 0 1 444.15,1276.6304 L444.15,955.2904 A2.5,2.5 0 0 1 446.65,952.7904" fill="#F08080" style="stroke:#000000;stroke-width:1;"/><line style="stroke:#000000;stroke-width:1;" x1="444.15" x2="591.1754" y1="1007.6811" y2="1007.6811"/><text fill="#000000" font-family="Verdana" font-size="14" font-weight="bold" lengthAdjust="spacing" textLength="134.0254" x="448.15" y="967.7855">Internal Network</text><text fill="#000000" font-family="Verdana" font-size="14" font-weight="bold" lengthAdjust="spacing" textLength="98.998" x="465.6637" y="984.0824">10.10.3.0/24</text><text fill="#000000" font-family="Verdana" font-size="14" font-weight="bold" lengthAdjust="spacing" textLength="118.3984" x="455.9635" y="1000.3793">[internal: true]</text></g><!--cluster monitoring--><g class="cluster" data-qualified-name="vps.monitoring" data-source-line="35" id="ent0020"><path d="M903.65,1143.3804 L1062.5123,1143.3804 A3.75,3.75 0 0 1 1065.0123,1145.8804 L1072.0123,1181.9742 L1321.65,1181.9742 A2.5,2.5 0 0 1 1324.15,1184.4742 L1324.15,1416.2204 A2.5,2.5 0 0 1 1321.65,1418.7204 L903.65,1418.7204 A2.5,2.5 0 0 1 901.15,1416.2204 L901.15,1145.8804 A2.5,2.5 0 0 1 903.65,1143.3804" fill="#FFFFE0" style="stroke:#000000;stroke-width:1;"/><line style="stroke:#000000;stroke-width:1;" x1="901.15" x2="1072.0123" y1="1181.9742" y2="1181.9742"/><text fill="#000000" font-family="Verdana" font-size="14" font-weight="bold" lengthAdjust="spacing" textLength="157.8623" x="905.15" y="1158.3755">Monitoring Network</text><text fill="#000000" font-family="Verdana" font-size="14" font-weight="bold" lengthAdjust="spacing" textLength="98.998" x="934.5821" y="1174.6724">10.10.4.0/24</text></g><!--entity user--><g class="entity" data-qualified-name="internet.user" data-source-line="9" id="ent0003"><ellipse cx="798.1456" cy="106.9304" fill="#FFFFFF" rx="8" ry="8" style="stroke:#000000;stroke-width:1;"/><path d="M798.1456,114.9304 L798.1456,141.9304 M785.1456,122.9304 L811.1456,122.9304 M798.1456,141.9304 L785.1456,156.9304 M798.1456,141.9304 L811.1456,156.9304" fill="none" style="stroke:#000000;stroke-width:1;"/><text fill="#000000" font-family="Verdana" font-size="14" lengthAdjust="spacing" textLength="75.5713" x="760.36" y="171.9255">Participant</text></g><!--entity proxy--><g class="entity" data-qualified-name="vps.dmz.proxy" data-source-line="15" id="ent0006"><rect fill="#FFFFFF" height="68.8906" rx="2.5" ry="2.5" style="stroke:#000000;stroke-width:1;" width="104.1914" x="611.05" y="334.2304"/><text fill="#000000" font-family="Verdana" font-size="14" lengthAdjust="spacing" textLength="84.1914" x="621.05" y="357.2255">Nginx Proxy</text><text fill="#000000" font-family="Verdana" font-size="14" lengthAdjust="spacing" textLength="75.7012" x="621.05" y="373.5224">10.10.1.10</text><text fill="#000000" font-family="Verdana" font-size="14" lengthAdjust="spacing" textLength="62.8701" x="621.05" y="389.8193">:80, :443</text></g><!--entity juice--><g class="entity" data-qualified-name="vps.dmz.juice" data-source-line="16" id="ent0007"><rect fill="#FFFFFF" height="68.8906" rx="2.5" ry="2.5" style="stroke:#000000;stroke-width:1;" width="95.7012" x="612.3" y="480.1204"/><text fill="#000000" font-family="Verdana" font-size="14" lengthAdjust="spacing" textLength="72.8643" x="622.3" y="503.1155">Juice Shop</text><text fill="#000000" font-family="Verdana" font-size="14" lengthAdjust="spacing" textLength="75.7012" x="622.3" y="519.4124">10.10.1.20</text><text fill="#000000" font-family="Verdana" font-size="14" lengthAdjust="spacing" textLength="40.3457" x="622.3" y="535.7093">:3000</text></g><!--entity bastion_dmz--><g class="entity" data-qualified-name="vps.dmz.bastion_dmz" data-source-line="17" id="ent0008"><rect fill="#FFFFFF" height="68.8906" rx="2.5" ry="2.5" style="stroke:#000000;stroke-width:1;" width="95.7012" x="750.3" y="334.2304"/><text fill="#000000" font-family="Verdana" font-size="14" lengthAdjust="spacing" textLength="52.2949" x="760.3" y="357.2255">Bastion</text><text fill="#000000" font-family="Verdana" font-size="14" lengthAdjust="spacing" textLength="75.7012" x="760.3" y="373.5224">10.10.1.30</text><text fill="#000000" font-family="Verdana" font-size="14" lengthAdjust="spacing" textLength="40.3457" x="760.3" y="389.8193">:2222</text></g><!--entity api--><g class="entity" data-qualified-name="vps.app.api" data-source-line="21" id="ent0010"><rect fill="#FFFFFF" height="68.8906" rx="2.5" ry="2.5" style="stroke:#000000;stroke-width:1;" width="100.8008" x="601.75" y="810.9004"/><text fill="#000000" font-family="Verdana" font-size="14" lengthAdjust="spacing" textLength="80.8008" x="611.75" y="833.8955">Internal API</text><text fill="#000000" font-family="Verdana" font-size="14" lengthAdjust="spacing" textLength="75.7012" x="611.75" y="850.1924">10.10.2.20</text><text fill="#000000" font-family="Verdana" font-size="14" lengthAdjust="spacing" textLength="22.5313" x="611.75" y="866.4893">:80</text></g><!--entity agent--><g class="entity" data-qualified-name="vps.app.agent" data-source-line="22" id="ent0011"><rect fill="#FFFFFF" height="68.8906" rx="2.5" ry="2.5" style="stroke:#000000;stroke-width:1;" width="117.6309" x="597.33" y="665.0104"/><text fill="#000000" font-family="Verdana" font-size="14" lengthAdjust="spacing" textLength="97.6309" x="607.33" y="688.0055">Agent Service</text><text fill="#000000" font-family="Verdana" font-size="14" lengthAdjust="spacing" textLength="75.7012" x="607.33" y="704.3024">10.10.2.30</text><text fill="#000000" font-family="Verdana" font-size="14" lengthAdjust="spacing" textLength="40.3457" x="607.33" y="720.5993">:5000</text></g><!--entity db_app--><g class="entity" data-qualified-name="vps.app.db_app" data-source-line="23" id="ent0012"><rect fill="#FFFFFF" height="68.8906" rx="2.5" ry="2.5" style="stroke:#000000;stroke-width:1;" width="95.7012" x="468.3" y="810.9004"/><text fill="#000000" font-family="Verdana" font-size="14" lengthAdjust="spacing" textLength="48.0703" x="478.3" y="833.8955">MySQL</text><text fill="#000000" font-family="Verdana" font-size="14" lengthAdjust="spacing" textLength="75.7012" x="478.3" y="850.1924">10.10.2.40</text><text fill="#000000" font-family="Verdana" font-size="14" lengthAdjust="spacing" textLength="40.3457" x="478.3" y="866.4893">:3306</text></g><!--entity bastion_app--><g class="entity" data-qualified-name="vps.app.bastion_app" data-source-line="24" id="ent0013"><rect fill="#FFFFFF" height="52.5938" rx="2.5" ry="2.5" style="stroke:#000000;stroke-width:1;" width="95.7012" x="750.3" y="673.1604"/><text fill="#000000" font-family="Verdana" font-size="14" lengthAdjust="spacing" textLength="52.2949" x="760.3" y="696.1555">Bastion</text><text fill="#000000" font-family="Verdana" font-size="14" lengthAdjust="spacing" textLength="75.7012" x="760.3" y="712.4524">10.10.2.50</text></g><!--entity juice_app--><g class="entity" data-qualified-name="vps.app.juice_app" data-source-line="25" id="ent0014"><rect fill="#FFFFFF" height="52.5938" rx="2.5" ry="2.5" style="stroke:#000000;stroke-width:1;" width="95.7012" x="466.3" y="673.1604"/><text fill="#000000" font-family="Verdana" font-size="14" lengthAdjust="spacing" textLength="72.8643" x="476.3" y="696.1555">Juice Shop</text><text fill="#000000" font-family="Verdana" font-size="14" lengthAdjust="spacing" textLength="75.7012" x="476.3" y="712.4524">10.10.2.10</text></g><!--entity agent_int--><g class="entity" data-qualified-name="vps.internal.agent_int" data-source-line="29" id="ent0016"><rect fill="#FFFFFF" height="52.5938" rx="2.5" ry="2.5" style="stroke:#000000;stroke-width:1;" width="95.7012" x="618.3" y="1027.7904"/><text fill="#000000" font-family="Verdana" font-size="14" lengthAdjust="spacing" textLength="41.4395" x="628.3" y="1050.7855">Agent</text><text fill="#000000" font-family="Verdana" font-size="14" lengthAdjust="spacing" textLength="75.7012" x="628.3" y="1067.0824">10.10.3.10</text></g><!--entity db_int--><g class="entity" data-qualified-name="vps.internal.db_int" data-source-line="30" id="ent0017"><rect fill="#FFFFFF" height="52.5938" rx="2.5" ry="2.5" style="stroke:#000000;stroke-width:1;" width="95.7012" x="487.3" y="1027.7904"/><text fill="#000000" font-family="Verdana" font-size="14" lengthAdjust="spacing" textLength="48.0703" x="497.3" y="1050.7855">MySQL</text><text fill="#000000" font-family="Verdana" font-size="14" lengthAdjust="spacing" textLength="75.7012" x="497.3" y="1067.0824">10.10.3.20</text></g><!--entity ldap--><g class="entity" data-qualified-name="vps.internal.ldap" data-source-line="31" id="ent0018"><rect fill="#FFFFFF" height="68.8906" rx="2.5" ry="2.5" style="stroke:#000000;stroke-width:1;" width="95.7012" x="618.3" y="1186.2404"/><text fill="#000000" font-family="Verdana" font-size="14" lengthAdjust="spacing" textLength="73.9922" x="628.3" y="1209.2355">OpenLDAP</text><text fill="#000000" font-family="Verdana" font-size="14" lengthAdjust="spacing" textLength="75.7012" x="628.3" y="1225.5324">10.10.3.30</text><text fill="#000000" font-family="Verdana" font-size="14" lengthAdjust="spacing" textLength="31.4385" x="628.3" y="1241.8293">:389</text></g><!--entity bastion_int--><g class="entity" data-qualified-name="vps.internal.bastion_int" data-source-line="32" id="ent0019"><rect fill="#FFFFFF" height="52.5938" rx="2.5" ry="2.5" style="stroke:#000000;stroke-width:1;" width="95.7012" x="749.3" y="1027.7904"/><text fill="#000000" font-family="Verdana" font-size="14" lengthAdjust="spacing" textLength="52.2949" x="759.3" y="1050.7855">Bastion</text><text fill="#000000" font-family="Verdana" font-size="14" lengthAdjust="spacing" textLength="75.7012" x="759.3" y="1067.0824">10.10.3.40</text></g><!--entity loki--><g class="entity" data-qualified-name="vps.monitoring.loki" data-source-line="36" id="ent0021"><rect fill="#FFFFFF" height="52.5938" rx="2.5" ry="2.5" style="stroke:#000000;stroke-width:1;" width="60.3457" x="1079.97" y="1350.1304"/><text fill="#000000" font-family="Verdana" font-size="14" lengthAdjust="spacing" textLength="28.3623" x="1089.97" y="1373.1255">Loki</text><text fill="#000000" font-family="Verdana" font-size="14" lengthAdjust="spacing" textLength="40.3457" x="1089.97" y="1389.4224">:3100</text></g><!--entity promtail--><g class="entity" data-qualified-name="vps.monitoring.promtail" data-source-line="37" id="ent0022"><rect fill="#FFFFFF" height="36.2969" rx="2.5" ry="2.5" style="stroke:#000000;stroke-width:1;" width="78.249" x="917.02" y="1202.5304"/><text fill="#000000" font-family="Verdana" font-size="14" lengthAdjust="spacing" textLength="58.249" x="927.02" y="1225.5255">Promtail</text></g><!--entity grafana--><g class="entity" data-qualified-name="vps.monitoring.grafana" data-source-line="38" id="ent0023"><rect fill="#FFFFFF" height="52.5938" rx="2.5" ry="2.5" style="stroke:#000000;stroke-width:1;" width="76.1436" x="1232.07" y="1194.3804"/><text fill="#000000" font-family="Verdana" font-size="14" lengthAdjust="spacing" textLength="56.1436" x="1242.07" y="1217.3755">Grafana</text><text fill="#000000" font-family="Verdana" font-size="14" lengthAdjust="spacing" textLength="40.3457" x="1242.07" y="1233.6724">:3000</text></g><!--entity proxy_mon--><g class="entity" data-qualified-name="vps.monitoring.proxy_mon" data-source-line="39" id="ent0024"><rect fill="#FFFFFF" height="52.5938" rx="2.5" ry="2.5" style="stroke:#000000;stroke-width:1;" width="59.5596" x="1137.37" y="1194.3804"/><text fill="#000000" font-family="Verdana" font-size="14" lengthAdjust="spacing" textLength="39.334" x="1147.37" y="1217.3755">Proxy</text><text fill="#000000" font-family="Verdana" font-size="14" lengthAdjust="spacing" textLength="39.5596" x="1147.37" y="1233.6724">(logs)</text></g><!--entity bastion_mon--><g class="entity" data-qualified-name="vps.monitoring.bastion_mon" data-source-line="40" id="ent0025"><rect fill="#FFFFFF" height="52.5938" rx="2.5" ry="2.5" style="stroke:#000000;stroke-width:1;" width="72.2949" x="1030" y="1194.3804"/><text fill="#000000" font-family="Verdana" font-size="14" lengthAdjust="spacing" textLength="52.2949" x="1040" y="1217.3755">Bastion</text><text fill="#000000" font-family="Verdana" font-size="14" lengthAdjust="spacing" textLength="39.5596" x="1040" y="1233.6724">(logs)</text></g><g class="entity" data-qualified-name="GMN42" data-source-line="66" id="ent0043"><path d="M234.47,1200.5504 L234.47,1240.8161 L395.8167,1240.8161 L395.8167,1210.5504 L385.8167,1200.5504 L234.47,1200.5504" fill="#FFFFFF" style="stroke:#000000;stroke-width:1;"/><path d="M385.8167,1200.5504 L385.8167,1210.5504 L395.8167,1210.5504 L385.8167,1200.5504" fill="#FFFFFF" style="stroke:#000000;stroke-width:1;"/><text fill="#000000" font-family="Verdana" font-size="13" lengthAdjust="spacing" textLength="140.3467" x="240.47" y="1217.6173">[VULN] Bastion spans</text><text fill="#000000" font-family="Verdana" font-size="13" lengthAdjust="spacing" textLength="91.292" x="240.47" y="1232.7501">all 4 networks</text></g><g class="entity" data-qualified-name="GMN45" data-source-line="67" id="ent0046"><path d="M11,1200.5504 L11,1240.8161 L199.2925,1240.8161 L199.2925,1210.5504 L189.2925,1200.5504 L11,1200.5504" fill="#FFFFFF" style="stroke:#000000;stroke-width:1;"/><path d="M189.2925,1200.5504 L189.2925,1210.5504 L199.2925,1210.5504 L189.2925,1200.5504" fill="#FFFFFF" style="stroke:#000000;stroke-width:1;"/><text fill="#000000" font-family="Verdana" font-size="13" lengthAdjust="spacing" textLength="126.6294" x="17" y="1217.6173">No external routing</text><text fill="#000000" font-family="Verdana" font-size="13" lengthAdjust="spacing" textLength="167.2925" x="17" y="1232.7501">(Docker internal network)</text></g><!--link user to proxy--><g class="link" data-entity-1="ent0003" data-entity-2="ent0006" data-link-type="dependency" data-source-line="44" id="lnk26"><path d="M760.04,171.4604 C749.43,182.1704 738.54,194.5404 730.15,207.2304 C703.5,247.5104 685.8305,294.3997 674.9405,328.1897" fill="none" id="user-to-proxy" style="stroke:#000000;stroke-width:1;"/><polygon fill="#000000" points="673.1,333.9004,679.6679,326.5613,674.6337,329.1415,672.0536,324.1073,673.1,333.9004" style="stroke:#000000;stroke-width:1;"/><text fill="#000000" font-family="Verdana" font-size="13" lengthAdjust="spacing" textLength="58.5508" x="731.15" y="220.2973">HTTP :80</text></g><!--link user to bastion_dmz--><g class="link" data-entity-1="ent0003" data-entity-2="ent0008" data-link-type="dependency" data-source-line="45" id="lnk27"><path d="M798.15,175.5704 C798.15,219.6104 798.15,285.5204 798.15,327.7504" fill="none" id="user-to-bastion_dmz" style="stroke:#000000;stroke-width:1;"/><polygon fill="#000000" points="798.15,333.7504,802.15,324.7504,798.15,328.7504,794.15,324.7504,798.15,333.7504" style="stroke:#000000;stroke-width:1;"/><text fill="#000000" font-family="Verdana" font-size="13" lengthAdjust="spacing" textLength="67.8755" x="799.15" y="220.2973">SSH :2222</text></g><!--link user to grafana--><g class="link" data-entity-1="ent0003" data-entity-2="ent0023" data-link-type="dependency" data-source-line="46" id="lnk28"><path d="M836.41,141.9704 C934.3,155.5404 1186.15,206.1504 1186.15,367.6704 C1186.15,367.6704 1186.15,367.6704 1186.15,1055.0904 C1186.15,1084.3604 1225.6154,1150.4906 1250.1254,1188.9506" fill="none" id="user-to-grafana" style="stroke:#000000;stroke-width:1;"/><polygon fill="#000000" points="1253.35,1194.0104,1251.8864,1184.2709,1250.6629,1189.7939,1245.1399,1188.5704,1253.35,1194.0104" style="stroke:#000000;stroke-width:1;"/><text fill="#000000" font-family="Verdana" font-size="13" lengthAdjust="spacing" textLength="75.0928" x="1187.15" y="704.0173">HTTP :3000</text></g><!--link proxy to juice--><g class="link" data-entity-1="ent0006" data-entity-2="ent0007" data-link-type="dependency" data-source-line="48" id="lnk29"><path d="M662.44,403.4104 C661.96,426.5004 661.4549,450.9917 660.9749,474.0417" fill="none" id="proxy-to-juice" style="stroke:#000000;stroke-width:1;"/><polygon fill="#000000" points="660.85,480.0404,665.0365,471.1257,660.9541,475.0415,657.0382,470.9591,660.85,480.0404" style="stroke:#000000;stroke-width:1;"/><text fill="#000000" font-family="Verdana" font-size="13" lengthAdjust="spacing" textLength="73.2012" x="662.74" y="446.1873">proxy_pass</text></g><!--link juice to juice_app--><g class="link" data-entity-1="ent0007" data-entity-2="ent0014" data-link-type="association" data-source-line="49" id="lnk30"><path d="M628.9,549.2004 C613.75,565.9204 595.55,586.6504 580.15,606.0104 C562.71,627.9204 544.31,653.9704 531.38,672.8204" fill="none" id="juice-juice_app" style="stroke:#0000FF;stroke-width:1;stroke-dasharray:7,7;"/><text fill="#000000" font-family="Verdana" font-size="13" lengthAdjust="spacing" textLength="101.1309" x="600.12" y="594.0773">same container</text></g><!--link bastion_dmz to bastion_app--><g class="link" data-entity-1="ent0008" data-entity-2="ent0013" data-link-type="association" data-source-line="51" id="lnk31"><path d="M798.15,403.3104 C798.15,469.2704 798.15,614.2504 798.15,672.9904" fill="none" id="bastion_dmz-bastion_app" style="stroke:#FF0000;stroke-width:1;stroke-dasharray:7,7;"/><text fill="#000000" font-family="Verdana" font-size="13" lengthAdjust="spacing" textLength="101.1309" x="799.15" y="519.1273">same container</text></g><!--link bastion_app to bastion_int--><g class="link" data-entity-1="ent0013" data-entity-2="ent0019" data-link-type="association" data-source-line="52" id="lnk32"><path d="M826.17,725.9404 C846.63,746.5704 872.7,777.5704 884.15,810.9004 C897.56,849.9504 894.91,863.9304 884.15,903.7904 C871.32,951.2904 839.22,999.2004 817.81,1027.5004" fill="none" id="bastion_app-bastion_int" style="stroke:#FF0000;stroke-width:1;stroke-dasharray:7,7;"/><text fill="#000000" font-family="Verdana" font-size="13" lengthAdjust="spacing" textLength="101.1309" x="894.24" y="849.9073">same container</text></g><!--link bastion_int to bastion_mon--><g class="link" data-entity-1="ent0019" data-entity-2="ent0025" data-link-type="association" data-source-line="53" id="lnk33"><path d="M845.42,1063.6504 C892.42,1074.0004 963.79,1095.2504 1013.15,1135.3804 C1032.33,1150.9804 1046.62,1175.4604 1055.49,1194.0204" fill="none" id="bastion_int-bastion_mon" style="stroke:#FF0000;stroke-width:1;stroke-dasharray:7,7;"/><text fill="#000000" font-family="Verdana" font-size="13" lengthAdjust="spacing" textLength="101.1309" x="999.27" y="1123.4473">same container</text></g><!--link agent to agent_int--><g class="link" data-entity-1="ent0011" data-entity-2="ent0016" data-link-type="association" data-source-line="55" id="lnk34"><path d="M713.21,734.1004 C722.89,742.5404 731.59,752.5004 737.15,763.9004 C781.4,854.7704 716.65,975.5004 683.58,1027.4904" fill="none" id="agent-agent_int" style="stroke:#008000;stroke-width:1;stroke-dasharray:7,7;"/><text fill="#000000" font-family="Verdana" font-size="13" lengthAdjust="spacing" textLength="101.1309" x="753.11" y="849.9073">same container</text></g><!--link db_app to db_int--><g class="link" data-entity-1="ent0012" data-entity-2="ent0017" data-link-type="association" data-source-line="56" id="lnk35"><path d="M519.24,880.0204 C523.04,921.3304 529.39,990.4204 532.8,1027.5904" fill="none" id="db_app-db_int" style="stroke:#008000;stroke-width:1;stroke-dasharray:7,7;"/><text fill="#000000" font-family="Verdana" font-size="13" lengthAdjust="spacing" textLength="101.1309" x="524.39" y="924.8573">same container</text></g><!--link juice_app to api--><g class="link" data-entity-1="ent0014" data-entity-2="ent0010" data-link-type="dependency" data-source-line="58" id="lnk36"><path d="M533.37,725.9804 C546.04,742.2604 563.33,763.4804 580.15,780.9004 C589.87,790.9704 596.4626,797.2889 606.9826,806.5789" fill="none" id="juice_app-to-api" style="stroke:#000000;stroke-width:1;"/><polygon fill="#000000" points="611.48,810.5504,607.3816,801.5948,607.7322,807.2408,602.0862,807.5913,611.48,810.5504" style="stroke:#000000;stroke-width:1;"/><text fill="#000000" font-family="Verdana" font-size="13" lengthAdjust="spacing" textLength="76.9019" x="581.15" y="776.9673">SSRF target</text></g><!--link juice_app to db_app--><g class="link" data-entity-1="ent0014" data-entity-2="ent0012" data-link-type="dependency" data-source-line="59" id="lnk37"><path d="M504.59,726.0504 C499.83,741.7904 495.58,762.4204 498.15,780.9004 C499.5,790.6504 500.3389,795.2392 503.0289,804.6992" fill="none" id="juice_app-to-db_app" style="stroke:#000000;stroke-width:1;"/><polygon fill="#000000" points="504.67,810.4704,506.0559,800.7196,503.3024,805.6611,498.3609,802.9077,504.67,810.4704" style="stroke:#000000;stroke-width:1;"/><text fill="#000000" font-family="Verdana" font-size="13" lengthAdjust="spacing" textLength="44.6367" x="499.15" y="776.9673">MySQL</text></g><!--link agent to api--><g class="link" data-entity-1="ent0011" data-entity-2="ent0010" data-link-type="dependency" data-source-line="60" id="lnk38"><path d="M663.83,734.0904 C666.21,748.4904 667.82,765.5104 666.15,780.9004 C665.08,790.6604 664.4361,795.2543 662.3061,804.8043" fill="none" id="agent-to-api" style="stroke:#000000;stroke-width:1;"/><polygon fill="#000000" points="661,810.6604,666.8633,802.747,662.0884,805.7803,659.0551,801.0055,661,810.6604" style="stroke:#000000;stroke-width:1;"/><text fill="#000000" font-family="Verdana" font-size="13" lengthAdjust="spacing" textLength="60.7026" x="667.84" y="776.9673">Tool calls</text></g><!--link agent_int to ldap--><g class="link" data-entity-1="ent0016" data-entity-2="ent0018" data-link-type="dependency" data-source-line="61" id="lnk39"><path d="M666.15,1080.8004 C666.15,1109.1004 666.15,1148.7004 666.15,1179.8804" fill="none" id="agent_int-to-ldap" style="stroke:#000000;stroke-width:1;"/><polygon fill="#000000" points="666.15,1185.8804,670.15,1176.8804,666.15,1180.8804,662.15,1176.8804,666.15,1185.8804" style="stroke:#000000;stroke-width:1;"/><text fill="#000000" font-family="Verdana" font-size="13" lengthAdjust="spacing" textLength="86.3345" x="667.15" y="1123.4473">LDAP queries</text></g><!--link promtail to loki--><g class="link" data-entity-1="ent0022" data-entity-2="ent0021" data-link-type="dependency" data-source-line="63" id="lnk40"><path d="M967.77,1239.2104 C978.43,1254.6904 995.11,1277.4804 1012.15,1295.1304 C1033.08,1316.8004 1054.8837,1334.6623 1075.0837,1349.9323" fill="none" id="promtail-to-loki" style="stroke:#000000;stroke-width:1;"/><polygon fill="#000000" points="1079.87,1353.5504,1075.1026,1344.9323,1075.8814,1350.5353,1070.2784,1351.314,1079.87,1353.5504" style="stroke:#000000;stroke-width:1;"/><text fill="#000000" font-family="Verdana" font-size="13" lengthAdjust="spacing" textLength="59.084" x="1038.36" y="1316.1973">Log push</text></g><!--link grafana to loki--><g class="link" data-entity-1="ent0023" data-entity-2="ent0021" data-link-type="dependency" data-source-line="64" id="lnk41"><path d="M1253.24,1247.1404 C1242.83,1261.9204 1228.73,1280.4604 1214.15,1295.1304 C1191.47,1317.9404 1167.1451,1336.5392 1145.4351,1351.7392" fill="none" id="grafana-to-loki" style="stroke:#000000;stroke-width:1;"/><polygon fill="#000000" points="1140.52,1355.1804,1150.1868,1353.2953,1144.6159,1352.3127,1145.5985,1346.7419,1140.52,1355.1804" style="stroke:#000000;stroke-width:1;"/><text fill="#000000" font-family="Verdana" font-size="13" lengthAdjust="spacing" textLength="40.9233" x="1204.89" y="1316.1973">LogQL</text></g><!--link bastion_int to GMN42--><g class="link" data-entity-1="ent0019" data-entity-2="ent0043" data-link-type="association" data-source-line="66" id="lnk44"><path d="M749.15,1074.4904 C743.13,1076.6204 737.03,1078.6504 731.15,1080.3804 C617.87,1113.8504 582.02,1094.6704 471.15,1135.3804 C424.91,1152.3604 375.53,1181.0504 345,1200.1704" fill="none" id="bastion_int-GMN42" style="stroke:#000000;stroke-width:1;stroke-dasharray:7,7;"/></g><!--link internal to GMN45--><g class="link" data-entity-1="ent0015" data-entity-2="ent0046" data-link-type="association" data-source-line="67" id="lnk47"><path d="M443.8647,1056.8977 C443.5842,1056.9608 443.2972,1057.0255 443.0036,1057.0919 C442.4164,1057.2246 441.8032,1057.3638 441.1645,1057.5096 C439.8872,1057.8011 438.5081,1058.1187 437.0326,1058.4623 C434.0815,1059.1494 430.7443,1059.9402 427.0623,1060.8337 C412.3347,1064.4076 392.0919,1069.6236 368.9838,1076.4092 C322.7675,1089.9804 265.09,1109.8304 217.15,1135.3804 C183,1153.5804 148.06,1181.6904 126.49,1200.3804" fill="none" id="internal-GMN45" style="stroke:#000000;stroke-width:1;stroke-dasharray:7,7;"/></g><g class="legend" data-source-line="69"><rect fill="none" height="95.4844" rx="7.5" ry="7.5" style="stroke:#000000;stroke-width:1;" width="251.4453" x="1083.7047" y="1452.7204"/><text fill="#000000" font-family="Verdana" font-size="14" font-weight="bold" lengthAdjust="spacing" textLength="41.2139" x="1093.5787" y="1472.7155">Color</text><text fill="#000000" font-family="Verdana" font-size="14" font-weight="bold" lengthAdjust="spacing" textLength="67.6279" x="1144.5406" y="1472.7155">Meaning</text><rect fill="#ADD8E6" height="16.2969" style="stroke:none;stroke-width:1;" width="50.9619" x="1088.7047" y="1476.0173"/><text fill="#000000" font-family="Verdana" font-size="14" lengthAdjust="spacing" textLength="4.4502" x="1088.7047" y="1489.0124">&#160;</text><text fill="#000000" font-family="Verdana" font-size="14" lengthAdjust="spacing" textLength="149.543" x="1144.1168" y="1489.0124">DMZ - Internet facing</text><rect fill="#90EE90" height="16.2969" style="stroke:none;stroke-width:1;" width="50.9619" x="1088.7047" y="1492.3142"/><text fill="#000000" font-family="Verdana" font-size="14" lengthAdjust="spacing" textLength="4.4502" x="1088.7047" y="1505.3093">&#160;</text><text fill="#000000" font-family="Verdana" font-size="14" lengthAdjust="spacing" textLength="147.7246" x="1144.1168" y="1505.3093">App - Application tier</text><rect fill="#F08080" height="16.2969" style="stroke:none;stroke-width:1;" width="50.9619" x="1088.7047" y="1508.6111"/><text fill="#000000" font-family="Verdana" font-size="14" lengthAdjust="spacing" textLength="4.4502" x="1088.7047" y="1521.6062">&#160;</text><text fill="#000000" font-family="Verdana" font-size="14" lengthAdjust="spacing" textLength="167.9727" x="1144.1168" y="1521.6062">Internal - Sensitive data</text><rect fill="#FFFFE0" height="16.2969" style="stroke:none;stroke-width:1;" width="50.9619" x="1088.7047" y="1524.9079"/><text fill="#000000" font-family="Verdana" font-size="14" lengthAdjust="spacing" textLength="4.4502" x="1088.7047" y="1537.903">&#160;</text><text fill="#000000" font-family="Verdana" font-size="14" lengthAdjust="spacing" textLength="181.583" x="1144.1168" y="1537.903">Monitoring - Observability</text><line style="stroke:#000000;stroke-width:1;" x1="1088.7047" x2="1330.15" y1="1459.7204" y2="1459.7204"/><line style="stroke:#000000;stroke-width:1;" x1="1088.7047" x2="1330.15" y1="1476.0173" y2="1476.0173"/><line style="stroke:#000000;stroke-width:1;" x1="1088.7047" x2="1330.15" y1="1492.3142" y2="1492.3142"/><line style="stroke:#000000;stroke-width:1;" x1="1088.7047" x2="1330.15" y1="1508.6111" y2="1508.6111"/><line style="stroke:#000000;stroke-width:1;" x1="1088.7047" x2="1330.15" y1="1524.9079" y2="1524.9079"/><line style="stroke:#000000;stroke-width:1;" x1="1088.7047" x2="1330.15" y1="1541.2048" y2="1541.2048"/><line style="stroke:#000000;stroke-width:1;" x1="1088.7047" x2="1088.7047" y1="1459.7204" y2="1541.2048"/><line style="stroke:#000000;stroke-width:1;" x1="1139.6666" x2="1139.6666" y1="1459.7204" y2="1541.2048"/><line style="stroke:#000000;stroke-width:1;" x1="1330.15" x2="1330.15" y1="1459.7204" y2="1541.2048"/></g><?plantuml-src TLLjRzis4FxENt5plZJ0x2csEtJ6LY1DbgQ3atfrsc5BZ82M6OKpJQeadSHhyzztHqgc_18b44pTyvpk7jtB3_vUB0IKYalDc9TU2JXPJOM5JrmN0Yw5VpHs3bUcDCeKAyRSNEgIMxw0AS_dXJLBFJj1cuM3iz_fhu78pQ8qMcW_zYjqR4NkqQiIZENAB6VG-g2zi5hu5d07iZh0DmPuyToZqzQ8MozpMN8TKKidB7jcx0vV8A3rPJI6S-CylFfyzXUSIIiUkLA70VfGkifNk9KOByUSMgSN_zI9tUYZh4F_dUodRZ-mPel_u60eYtl_JYr5vO2kwyj2wYSOMVEqIhoZx4OFtcG_mg3Vxqt8GKc0nFfZANC1utjJ9bANIBqiomBXNq8amZlkl3GweNk4xk8LqDDeliKu0-TvJuR7PRcTOJTboD4QCtnlXT3D5EC7uGgEHnyIinjpd4IoJF3Z0ZykZ8Lzm0mIFWJykawF4oXnBbRZFuS9smzIzBAV0tOslSNeNjIYstcTROYm0TvLkekt9F4QlK-oTUPRklM2RZVwMbQ00NYx59D6oI8fodbYBFx-jgLFydJK4EHMlYXA3mMlrTX0VIo57fuUZn8mADrxyqk0gnb_MReUAhqXNUrvdnWNHaliFgcBRJdwgOmM2HJJ_riePHwR-G_DN5A0HrKfA3mdAtRImdEfwgu9XsH-R_aTrxpPAKLyjE62cl4LpYPtcBhl5cFReqG3LgjG0vzffj1iWNRxRNG20pY_kXe1LdwoDBeFxUFnEOJEJ80gn3MPOcSiEYHxg4IqnZXBxXoBZphN1rCSE9DEAbQ4EPfokT4eZSR1nvhlHuOLCoGqkc6NqZJkCB08NcQGSOU1Wkq9AvGqWGkQA0XVr_WkEFPu4nphV8_Rf0H9XwCdQFxf33otXV1Rzihn048tLJ4bufKn2dBS3ewbwCXCVODswYpukXHM2XU-MAZ7YC2w9OGfe5owUrP_v4qRlfDfumLCZVTc0UPkI-VhBv-7bnEewX4SBZLtW-D3GHzqx3EtxM4zOWPmQK0yLIVSknux3slwrEHphBqrhd9qo9WIcEOCBFKc5ldtto0kQlnn8RYcnlrEp-7NjE_Uuf7sOnlgtGntFD-1XiL1MDeqRRehcVEGbPSOpGOuZ4K2hsTi6tU6TjBB1m4pxlacFiuH8ZJcK1i-Jh777lXKAkbNoC3SOeRiVm00?></g></svg>