<?plantuml 1.2026.2?><svg xmlns="http://www.w3.org/2000/svg" xmlns:xlink="http://www.w3.org/1999/xlink" contentStyleType="text/css" data-diagram-type="SEQUENCE" height="1280px" preserveAspectRatio="none" style="width:1097px;height:1280px;background:#FFFFFF;" version="1.1" viewBox="0 0 1097 1280" width="1097px" zoomAndPan="magnify"><title>Bastion Access &amp; Network Enumeration</title><defs/><g><text fill="#000000" font-family="Verdana" font-size="22" font-weight="bold" lengthAdjust="spacing" textLength="491.0791" x="301.5786" y="35.4209">Bastion Access &amp; Network Enumeration</text><g><title>Fail2Ban</title><rect fill="#FFFFFF" height="29.1328" style="stroke:#000000;stroke-width:1;" width="10" x="143.7588" y="248.6016"/></g><g><title>UFW Firewall</title><rect fill="#FFFFFF" height="225.0625" style="stroke:#000000;stroke-width:1;" width="10" x="321.3809" y="219.4688"/></g><g><title>Bastion</title><rect fill="#FFFFFF" height="137.6641" style="stroke:#000000;stroke-width:1;" width="10" x="478.7715" y="306.8672"/></g><g><title>Bastion</title><rect fill="#FFFFFF" height="185.3281" style="stroke:#000000;stroke-width:1;" width="10" x="478.7715" y="516.7969"/></g><g><title>Bastion</title><rect fill="#FFFFFF" height="87.3984" style="stroke:#000000;stroke-width:1;" width="10" x="478.7715" y="774.3906"/></g><g><title>Bastion</title><rect fill="#FFFFFF" height="122.5313" style="stroke:#000000;stroke-width:1;" width="10" x="478.7715" y="890.9219"/></g><g><title>Bastion</title><rect fill="#FFFFFF" height="122.5313" style="stroke:#000000;stroke-width:1;" width="10" x="478.7715" y="1042.5859"/></g><g><title>Internal API</title><rect fill="#FFFFFF" height="29.1328" style="stroke:#000000;stroke-width:1;" width="10" x="720.7236" y="803.5234"/></g><g><title>MySQL</title><rect fill="#FFFFFF" height="93.3984" style="stroke:#000000;stroke-width:1;" width="10" x="842.9746" y="920.0547"/></g><g><title>OpenLDAP</title><rect fill="#FFFFFF" height="64.2656" style="stroke:#000000;stroke-width:1;" width="10" x="962.6758" y="1071.7188"/></g><g class="participant-lifeline" data-entity-uid="part1" data-qualified-name="user" id="part1-lifeline"><g><title>Workshop</title><rect fill="#000000" fill-opacity="0.00000" height="1037.9141" width="8" x="46.7856" y="145.2031"/><line style="stroke:#000000;stroke-width:1;stroke-dasharray:5,5;" x1="50" x2="50" y1="145.2031" y2="1183.1172"/></g></g><g class="participant-lifeline" data-entity-uid="part2" data-qualified-name="f2b" id="part2-lifeline"><g><title>Fail2Ban</title><rect fill="#000000" fill-opacity="0.00000" height="1037.9141" width="8" x="144.7588" y="145.2031"/><line style="stroke:#000000;stroke-width:1;stroke-dasharray:5,5;" x1="148.5713" x2="148.5713" y1="145.2031" y2="1183.1172"/></g></g><g class="participant-lifeline" data-entity-uid="part3" data-qualified-name="ufw" id="part3-lifeline"><g><title>UFW Firewall</title><rect fill="#000000" fill-opacity="0.00000" height="1037.9141" width="8" x="322.3809" y="145.2031"/><line style="stroke:#000000;stroke-width:1;stroke-dasharray:5,5;" x1="326.0244" x2="326.0244" y1="145.2031" y2="1183.1172"/></g></g><g class="participant-lifeline" data-entity-uid="part4" data-qualified-name="bastion" id="part4-lifeline"><g><title>Bastion</title><rect fill="#000000" fill-opacity="0.00000" height="1037.9141" width="8" x="479.7715" y="145.2031"/><line style="stroke:#000000;stroke-width:1;stroke-dasharray:5,5;" x1="482.9209" x2="482.9209" y1="145.2031" y2="1183.1172"/></g></g><g class="participant-lifeline" data-entity-uid="part5" data-qualified-name="juice" id="part5-lifeline"><g><title>Juice Shop</title><rect fill="#000000" fill-opacity="0.00000" height="1037.9141" width="8" x="599.4727" y="145.2031"/><line style="stroke:#000000;stroke-width:1;stroke-dasharray:5,5;" x1="602.6221" x2="602.6221" y1="145.2031" y2="1183.1172"/></g></g><g class="participant-lifeline" data-entity-uid="part6" data-qualified-name="api" id="part6-lifeline"><g><title>Internal API</title><rect fill="#000000" fill-opacity="0.00000" height="1037.9141" width="8" x="721.7236" y="145.2031"/><line style="stroke:#000000;stroke-width:1;stroke-dasharray:5,5;" x1="725.3232" x2="725.3232" y1="145.2031" y2="1183.1172"/></g></g><g class="participant-lifeline" data-entity-uid="part7" data-qualified-name="db" id="part7-lifeline"><g><title>MySQL</title><rect fill="#000000" fill-opacity="0.00000" height="1037.9141" width="8" x="843.9746" y="145.2031"/><line style="stroke:#000000;stroke-width:1;stroke-dasharray:5,5;" x1="847.124" x2="847.124" y1="145.2031" y2="1183.1172"/></g></g><g class="participant-lifeline" data-entity-uid="part8" data-qualified-name="ldap" id="part8-lifeline"><g><title>OpenLDAP</title><rect fill="#000000" fill-opacity="0.00000" height="1037.9141" width="8" x="963.6758" y="145.2031"/><line style="stroke:#000000;stroke-width:1;stroke-dasharray:5,5;" x1="966.8252" x2="966.8252" y1="145.2031" y2="1183.1172"/></g></g><g class="participant participant-head" data-entity-uid="part1" data-qualified-name="user" id="part1-head"><text fill="#000000" font-family="Verdana" font-size="14" lengthAdjust="spacing" textLength="69.8906" x="12.8403" y="125.6045">Workshop</text><text fill="#000000" font-family="Verdana" font-size="14" lengthAdjust="spacing" textLength="75.5713" x="10" y="141.9014">Participant</text><ellipse cx="50.7856" cy="60.6094" fill="#FFFFFF" rx="8" ry="8" style="stroke:#000000;stroke-width:1;"/><path d="M50.7856,68.6094 L50.7856,95.6094 M37.7856,76.6094 L63.7856,76.6094 M50.7856,95.6094 L37.7856,110.6094 M50.7856,95.6094 L63.7856,110.6094" fill="none" style="stroke:#000000;stroke-width:1;"/></g><g class="participant participant-tail" data-entity-uid="part1" data-qualified-name="user" id="part1-tail"><text fill="#000000" font-family="Verdana" font-size="14" lengthAdjust="spacing" textLength="69.8906" x="12.8403" y="1195.1123">Workshop</text><text fill="#000000" font-family="Verdana" font-size="14" lengthAdjust="spacing" textLength="75.5713" x="10" y="1211.4092">Participant</text><ellipse cx="50.7856" cy="1223.7109" fill="#FFFFFF" rx="8" ry="8" style="stroke:#000000;stroke-width:1;"/><path d="M50.7856,1231.7109 L50.7856,1258.7109 M37.7856,1239.7109 L63.7856,1239.7109 M50.7856,1258.7109 L37.7856,1273.7109 M50.7856,1258.7109 L63.7856,1273.7109" fill="none" style="stroke:#000000;stroke-width:1;"/></g><g class="participant participant-head" data-entity-uid="part2" data-qualified-name="f2b" id="part2-head"><rect fill="#FFFFFF" height="30.2969" rx="2.5" ry="2.5" style="stroke:#000000;stroke-width:1;" width="74.375" x="111.5713" y="113.9063"/><text fill="#000000" font-family="Verdana" font-size="14" lengthAdjust="spacing" textLength="60.375" x="118.5713" y="133.9014">Fail2Ban</text></g><g class="participant participant-tail" data-entity-uid="part2" data-qualified-name="f2b" id="part2-tail"><rect fill="#FFFFFF" height="30.2969" rx="2.5" ry="2.5" style="stroke:#000000;stroke-width:1;" width="74.375" x="111.5713" y="1182.1172"/><text fill="#000000" font-family="Verdana" font-size="14" lengthAdjust="spacing" textLength="60.375" x="118.5713" y="1202.1123">Fail2Ban</text></g><g class="participant participant-head" data-entity-uid="part3" data-qualified-name="ufw" id="part3-head"><rect fill="#FFFFFF" height="30.2969" rx="2.5" ry="2.5" style="stroke:#000000;stroke-width:1;" width="104.7129" x="274.0244" y="113.9063"/><text fill="#000000" font-family="Verdana" font-size="14" lengthAdjust="spacing" textLength="90.7129" x="281.0244" y="133.9014">UFW Firewall</text></g><g class="participant participant-tail" data-entity-uid="part3" data-qualified-name="ufw" id="part3-tail"><rect fill="#FFFFFF" height="30.2969" rx="2.5" ry="2.5" style="stroke:#000000;stroke-width:1;" width="104.7129" x="274.0244" y="1182.1172"/><text fill="#000000" font-family="Verdana" font-size="14" lengthAdjust="spacing" textLength="90.7129" x="281.0244" y="1202.1123">UFW Firewall</text></g><g class="participant participant-head" data-entity-uid="part4" data-qualified-name="bastion" id="part4-head"><rect fill="#FFFFFF" height="46.5938" rx="2.5" ry="2.5" style="stroke:#000000;stroke-width:1;" width="89.7012" x="438.9209" y="97.6094"/><text fill="#000000" font-family="Verdana" font-size="14" lengthAdjust="spacing" textLength="52.2949" x="457.624" y="117.6045">Bastion</text><text fill="#000000" font-family="Verdana" font-size="14" lengthAdjust="spacing" textLength="75.7012" x="445.9209" y="133.9014">10.10.1.30</text></g><g class="participant participant-tail" data-entity-uid="part4" data-qualified-name="bastion" id="part4-tail"><rect fill="#FFFFFF" height="46.5938" rx="2.5" ry="2.5" style="stroke:#000000;stroke-width:1;" width="89.7012" x="438.9209" y="1182.1172"/><text fill="#000000" font-family="Verdana" font-size="14" lengthAdjust="spacing" textLength="52.2949" x="457.624" y="1202.1123">Bastion</text><text fill="#000000" font-family="Verdana" font-size="14" lengthAdjust="spacing" textLength="75.7012" x="445.9209" y="1218.4092">10.10.1.30</text></g><g class="participant participant-head" data-entity-uid="part5" data-qualified-name="juice" id="part5-head"><rect fill="#FFFFFF" height="46.5938" rx="2.5" ry="2.5" style="stroke:#000000;stroke-width:1;" width="89.7012" x="558.6221" y="97.6094"/><text fill="#000000" font-family="Verdana" font-size="14" lengthAdjust="spacing" textLength="72.8643" x="567.0405" y="117.6045">Juice Shop</text><text fill="#000000" font-family="Verdana" font-size="14" lengthAdjust="spacing" textLength="75.7012" x="565.6221" y="133.9014">10.10.1.20</text></g><g class="participant participant-tail" data-entity-uid="part5" data-qualified-name="juice" id="part5-tail"><rect fill="#FFFFFF" height="46.5938" rx="2.5" ry="2.5" style="stroke:#000000;stroke-width:1;" width="89.7012" x="558.6221" y="1182.1172"/><text fill="#000000" font-family="Verdana" font-size="14" lengthAdjust="spacing" textLength="72.8643" x="567.0405" y="1202.1123">Juice Shop</text><text fill="#000000" font-family="Verdana" font-size="14" lengthAdjust="spacing" textLength="75.7012" x="565.6221" y="1218.4092">10.10.1.20</text></g><g class="participant participant-head" data-entity-uid="part6" data-qualified-name="api" id="part6-head"><rect fill="#FFFFFF" height="46.5938" rx="2.5" ry="2.5" style="stroke:#000000;stroke-width:1;" width="94.8008" x="678.3232" y="97.6094"/><text fill="#000000" font-family="Verdana" font-size="14" lengthAdjust="spacing" textLength="80.8008" x="685.3232" y="117.6045">Internal API</text><text fill="#000000" font-family="Verdana" font-size="14" lengthAdjust="spacing" textLength="75.7012" x="687.873" y="133.9014">10.10.2.20</text></g><g class="participant participant-tail" data-entity-uid="part6" data-qualified-name="api" id="part6-tail"><rect fill="#FFFFFF" height="46.5938" rx="2.5" ry="2.5" style="stroke:#000000;stroke-width:1;" width="94.8008" x="678.3232" y="1182.1172"/><text fill="#000000" font-family="Verdana" font-size="14" lengthAdjust="spacing" textLength="80.8008" x="685.3232" y="1202.1123">Internal API</text><text fill="#000000" font-family="Verdana" font-size="14" lengthAdjust="spacing" textLength="75.7012" x="687.873" y="1218.4092">10.10.2.20</text></g><g class="participant participant-head" data-entity-uid="part7" data-qualified-name="db" id="part7-head"><rect fill="#FFFFFF" height="46.5938" rx="2.5" ry="2.5" style="stroke:#000000;stroke-width:1;" width="89.7012" x="803.124" y="97.6094"/><text fill="#000000" font-family="Verdana" font-size="14" lengthAdjust="spacing" textLength="48.0703" x="823.9395" y="117.6045">MySQL</text><text fill="#000000" font-family="Verdana" font-size="14" lengthAdjust="spacing" textLength="75.7012" x="810.124" y="133.9014">10.10.3.20</text></g><g class="participant participant-tail" data-entity-uid="part7" data-qualified-name="db" id="part7-tail"><rect fill="#FFFFFF" height="46.5938" rx="2.5" ry="2.5" style="stroke:#000000;stroke-width:1;" width="89.7012" x="803.124" y="1182.1172"/><text fill="#000000" font-family="Verdana" font-size="14" lengthAdjust="spacing" textLength="48.0703" x="823.9395" y="1202.1123">MySQL</text><text fill="#000000" font-family="Verdana" font-size="14" lengthAdjust="spacing" textLength="75.7012" x="810.124" y="1218.4092">10.10.3.20</text></g><g class="participant participant-head" data-entity-uid="part8" data-qualified-name="ldap" id="part8-head"><rect fill="#FFFFFF" height="46.5938" rx="2.5" ry="2.5" style="stroke:#000000;stroke-width:1;" width="89.7012" x="922.8252" y="97.6094"/><text fill="#000000" font-family="Verdana" font-size="14" lengthAdjust="spacing" textLength="73.9922" x="930.6797" y="117.6045">OpenLDAP</text><text fill="#000000" font-family="Verdana" font-size="14" lengthAdjust="spacing" textLength="75.7012" x="929.8252" y="133.9014">10.10.3.30</text></g><g class="participant participant-tail" data-entity-uid="part8" data-qualified-name="ldap" id="part8-tail"><rect fill="#FFFFFF" height="46.5938" rx="2.5" ry="2.5" style="stroke:#000000;stroke-width:1;" width="89.7012" x="922.8252" y="1182.1172"/><text fill="#000000" font-family="Verdana" font-size="14" lengthAdjust="spacing" textLength="73.9922" x="930.6797" y="1202.1123">OpenLDAP</text><text fill="#000000" font-family="Verdana" font-size="14" lengthAdjust="spacing" textLength="75.7012" x="929.8252" y="1218.4092">10.10.3.30</text></g><g><title>Fail2Ban</title><rect fill="#FFFFFF" height="29.1328" style="stroke:#000000;stroke-width:1;" width="10" x="143.7588" y="248.6016"/></g><g><title>UFW Firewall</title><rect fill="#FFFFFF" height="225.0625" style="stroke:#000000;stroke-width:1;" width="10" x="321.3809" y="219.4688"/></g><g><title>Bastion</title><rect fill="#FFFFFF" height="137.6641" style="stroke:#000000;stroke-width:1;" width="10" x="478.7715" y="306.8672"/></g><g><title>Bastion</title><rect fill="#FFFFFF" height="185.3281" style="stroke:#000000;stroke-width:1;" width="10" x="478.7715" y="516.7969"/></g><g><title>Bastion</title><rect fill="#FFFFFF" height="87.3984" style="stroke:#000000;stroke-width:1;" width="10" x="478.7715" y="774.3906"/></g><g><title>Bastion</title><rect fill="#FFFFFF" height="122.5313" style="stroke:#000000;stroke-width:1;" width="10" x="478.7715" y="890.9219"/></g><g><title>Bastion</title><rect fill="#FFFFFF" height="122.5313" style="stroke:#000000;stroke-width:1;" width="10" x="478.7715" y="1042.5859"/></g><g><title>Internal API</title><rect fill="#FFFFFF" height="29.1328" style="stroke:#000000;stroke-width:1;" width="10" x="720.7236" y="803.5234"/></g><g><title>MySQL</title><rect fill="#FFFFFF" height="93.3984" style="stroke:#000000;stroke-width:1;" width="10" x="842.9746" y="920.0547"/></g><g><title>OpenLDAP</title><rect fill="#FFFFFF" height="64.2656" style="stroke:#000000;stroke-width:1;" width="10" x="962.6758" y="1071.7188"/></g><rect fill="#FFFFFF" height="3" style="stroke:#FFFFFF;stroke-width:1;" width="1085.2363" x="5" y="175.7695"/><line style="stroke:#000000;stroke-width:0.5;" x1="5" x2="1090.2363" y1="175.7695" y2="175.7695"/><line style="stroke:#000000;stroke-width:0.5;" x1="5" x2="1090.2363" y1="178.7695" y2="178.7695"/><rect fill="#FFFFFF" height="23.1328" style="stroke:#000000;stroke-width:1;" width="92.8887" x="501.1738" y="165.2031"/><text fill="#000000" font-family="Verdana" font-size="13" font-weight="bold" lengthAdjust="spacing" textLength="74.3628" x="507.1738" y="181.27">SSH Login</text><g class="message" data-entity-1="part1" data-entity-2="part3" id="msg1"><polygon fill="#000000" points="309.3809,215.4688,319.3809,219.4688,309.3809,223.4688,313.3809,219.4688" style="stroke:#000000;stroke-width:1;"/><line style="stroke:#000000;stroke-width:1;" x1="50.7856" x2="315.3809" y1="219.4688" y2="219.4688"/><text fill="#000000" font-family="Verdana" font-size="13" lengthAdjust="spacing" textLength="124.3315" x="57.7856" y="214.4028">SSH to vps-ip:2222</text></g><g class="message" data-entity-1="part3" data-entity-2="part2" id="msg2"><polygon fill="#000000" points="164.7588,244.6016,154.7588,248.6016,164.7588,252.6016,160.7588,248.6016" style="stroke:#000000;stroke-width:1;"/><line style="stroke:#000000;stroke-width:1;" x1="158.7588" x2="320.3809" y1="248.6016" y2="248.6016"/><text fill="#000000" font-family="Verdana" font-size="13" lengthAdjust="spacing" textLength="103.2573" x="170.7588" y="243.5356">Check rate limit</text></g><g class="message" data-entity-1="part2" data-entity-2="part3" id="msg3"><polygon fill="#000000" points="309.3809,273.7344,319.3809,277.7344,309.3809,281.7344,313.3809,277.7344" style="stroke:#000000;stroke-width:1;"/><line style="stroke:#000000;stroke-width:1;stroke-dasharray:2,2;" x1="148.7588" x2="315.3809" y1="277.7344" y2="277.7344"/><text fill="#000000" font-family="Verdana" font-size="13" lengthAdjust="spacing" textLength="143.6221" x="155.7588" y="272.6685">Allow (&lt; 10 attempts)</text></g><g class="message" data-entity-1="part3" data-entity-2="part4" id="msg4"><polygon fill="#000000" points="466.7715,302.8672,476.7715,306.8672,466.7715,310.8672,470.7715,306.8672" style="stroke:#000000;stroke-width:1;"/><line style="stroke:#000000;stroke-width:1;" x1="331.3809" x2="472.7715" y1="306.8672" y2="306.8672"/><text fill="#000000" font-family="Verdana" font-size="13" lengthAdjust="spacing" textLength="83.3828" x="338.3809" y="301.8013">Forward SSH</text></g><g class="message" data-entity-1="part4" data-entity-2="part1" id="msg5"><polygon fill="#000000" points="61.7856,332,51.7856,336,61.7856,340,57.7856,336" style="stroke:#000000;stroke-width:1;"/><line style="stroke:#000000;stroke-width:1;stroke-dasharray:2,2;" x1="55.7856" x2="477.7715" y1="336" y2="336"/><text fill="#000000" font-family="Verdana" font-size="13" lengthAdjust="spacing" textLength="113.2295" x="67.7856" y="330.9341">Password prompt</text></g><g class="message" data-entity-1="part1" data-entity-2="part4" id="msg6"><polygon fill="#000000" points="466.7715,361.1328,476.7715,365.1328,466.7715,369.1328,470.7715,365.1328" style="stroke:#000000;stroke-width:1;"/><line style="stroke:#000000;stroke-width:1;" x1="50.7856" x2="472.7715" y1="365.1328" y2="365.1328"/><text fill="#000000" font-family="Verdana" font-size="13" lengthAdjust="spacing" textLength="132.1519" x="57.7856" y="360.0669">analyst / analyst123</text></g><path d="M372,378.1328 L372,418.1328 L594,418.1328 L594,388.1328 L584,378.1328 L372,378.1328" fill="#FFFFFF" style="stroke:#000000;stroke-width:1;"/><path d="M584,378.1328 L584,388.1328 L594,388.1328 L584,378.1328" fill="#FFFFFF" style="stroke:#000000;stroke-width:1;"/><text fill="#000000" font-family="Verdana" font-size="13" lengthAdjust="spacing" textLength="201.3096" x="378" y="395.1997">[VULN] Password auth enabled</text><text fill="#000000" font-family="Verdana" font-size="13" lengthAdjust="spacing" textLength="124.4712" x="378" y="410.3325">Should be key-only</text><g class="message" data-entity-1="part4" data-entity-2="part1" id="msg7"><polygon fill="#000000" points="61.7856,440.5313,51.7856,444.5313,61.7856,448.5313,57.7856,444.5313" style="stroke:#000000;stroke-width:1;"/><line style="stroke:#000000;stroke-width:1;stroke-dasharray:2,2;" x1="55.7856" x2="482.7715" y1="444.5313" y2="444.5313"/><text fill="#000000" font-family="Verdana" font-size="13" lengthAdjust="spacing" textLength="79.6504" x="67.7856" y="439.4653">Shell access</text></g><rect fill="#FFFFFF" height="3" style="stroke:#FFFFFF;stroke-width:1;" width="1085.2363" x="5" y="473.0977"/><line style="stroke:#000000;stroke-width:0.5;" x1="5" x2="1090.2363" y1="473.0977" y2="473.0977"/><line style="stroke:#000000;stroke-width:0.5;" x1="5" x2="1090.2363" y1="476.0977" y2="476.0977"/><rect fill="#FFFFFF" height="23.1328" style="stroke:#000000;stroke-width:1;" width="277.6245" x="408.8059" y="462.5313"/><text fill="#000000" font-family="Verdana" font-size="13" font-weight="bold" lengthAdjust="spacing" textLength="259.0986" x="414.8059" y="478.5981">Network Enumeration from Bastion</text><g class="message" data-entity-1="part1" data-entity-2="part4" id="msg8"><polygon fill="#000000" points="466.7715,512.7969,476.7715,516.7969,466.7715,520.7969,470.7715,516.7969" style="stroke:#000000;stroke-width:1;"/><line style="stroke:#000000;stroke-width:1;" x1="50.7856" x2="472.7715" y1="516.7969" y2="516.7969"/><text fill="#000000" font-family="Verdana" font-size="13" lengthAdjust="spacing" textLength="322.188" x="57.7856" y="511.731">nmap -sn 10.10.1.0/24 10.10.2.0/24 10.10.3.0/24</text></g><path d="M349,529.7969 L349,569.7969 L618,569.7969 L618,539.7969 L608,529.7969 L349,529.7969" fill="#FFFFFF" style="stroke:#000000;stroke-width:1;"/><path d="M608,529.7969 L608,539.7969 L618,539.7969 L608,529.7969" fill="#FFFFFF" style="stroke:#000000;stroke-width:1;"/><text fill="#000000" font-family="Verdana" font-size="13" lengthAdjust="spacing" textLength="248.0664" x="355" y="546.8638">[VULN] Bastion connected to ALL tiers</text><text fill="#000000" font-family="Verdana" font-size="13" lengthAdjust="spacing" textLength="142.3335" x="355" y="561.9966">Should be segmented</text><g class="message" data-entity-1="part4" data-entity-2="part1" id="msg9"><polygon fill="#000000" points="61.7856,698.125,51.7856,702.125,61.7856,706.125,57.7856,702.125" style="stroke:#000000;stroke-width:1;"/><line style="stroke:#000000;stroke-width:1;stroke-dasharray:2,2;" x1="55.7856" x2="482.7715" y1="702.125" y2="702.125"/><text fill="#000000" font-family="Verdana" font-size="13" lengthAdjust="spacing" textLength="116.1304" x="67.7856" y="591.1294">Discovered hosts:</text><text fill="#000000" font-family="Verdana" font-size="13" lengthAdjust="spacing" textLength="121.5068" x="67.7856" y="606.2622">10.10.1.10 (proxy)</text><text fill="#000000" font-family="Verdana" font-size="13" lengthAdjust="spacing" textLength="115.1782" x="67.7856" y="621.395">10.10.1.20 (juice)</text><text fill="#000000" font-family="Verdana" font-size="13" lengthAdjust="spacing" textLength="104.3999" x="67.7856" y="636.5278">10.10.2.20 (api)</text><text fill="#000000" font-family="Verdana" font-size="13" lengthAdjust="spacing" textLength="122.1226" x="67.7856" y="651.6606">10.10.2.30 (agent)</text><text fill="#000000" font-family="Verdana" font-size="13" lengthAdjust="spacing" textLength="101.0737" x="67.7856" y="666.7935">10.10.2.40 (db)</text><text fill="#000000" font-family="Verdana" font-size="13" lengthAdjust="spacing" textLength="155.3145" x="67.7856" y="681.9263">10.10.3.20 (db internal)</text><text fill="#000000" font-family="Verdana" font-size="13" lengthAdjust="spacing" textLength="112.6519" x="67.7856" y="697.0591">10.10.3.30 (ldap)</text></g><rect fill="#FFFFFF" height="3" style="stroke:#FFFFFF;stroke-width:1;" width="1085.2363" x="5" y="730.6914"/><line style="stroke:#000000;stroke-width:0.5;" x1="5" x2="1090.2363" y1="730.6914" y2="730.6914"/><line style="stroke:#000000;stroke-width:0.5;" x1="5" x2="1090.2363" y1="733.6914" y2="733.6914"/><rect fill="#FFFFFF" height="23.1328" style="stroke:#000000;stroke-width:1;" width="179.7563" x="457.74" y="720.125"/><text fill="#000000" font-family="Verdana" font-size="13" font-weight="bold" lengthAdjust="spacing" textLength="161.2305" x="463.74" y="736.1919">Direct Internal Access</text><g class="message" data-entity-1="part1" data-entity-2="part4" id="msg10"><polygon fill="#000000" points="466.7715,770.3906,476.7715,774.3906,466.7715,778.3906,470.7715,774.3906" style="stroke:#000000;stroke-width:1;"/><line style="stroke:#000000;stroke-width:1;" x1="50.7856" x2="472.7715" y1="774.3906" y2="774.3906"/><text fill="#000000" font-family="Verdana" font-size="13" lengthAdjust="spacing" textLength="164.3218" x="57.7856" y="769.3247">curl http://10.10.2.20/get</text></g><g class="message" data-entity-1="part4" data-entity-2="part6" id="msg11"><polygon fill="#000000" points="708.7236,799.5234,718.7236,803.5234,708.7236,807.5234,712.7236,803.5234" style="stroke:#000000;stroke-width:1;"/><line style="stroke:#000000;stroke-width:1;" x1="488.7715" x2="714.7236" y1="803.5234" y2="803.5234"/><text fill="#000000" font-family="Verdana" font-size="13" lengthAdjust="spacing" textLength="93.7168" x="495.7715" y="798.4575">HTTP GET /get</text></g><g class="message" data-entity-1="part6" data-entity-2="part4" id="msg12"><polygon fill="#000000" points="499.7715,828.6563,489.7715,832.6563,499.7715,836.6563,495.7715,832.6563" style="stroke:#000000;stroke-width:1;"/><line style="stroke:#000000;stroke-width:1;stroke-dasharray:2,2;" x1="493.7715" x2="724.7236" y1="832.6563" y2="832.6563"/><text fill="#000000" font-family="Verdana" font-size="13" lengthAdjust="spacing" textLength="176.9409" x="505.7715" y="827.5903">{"origin": "10.10.2.50", ...}</text></g><g class="message" data-entity-1="part4" data-entity-2="part1" id="msg13"><polygon fill="#000000" points="61.7856,857.7891,51.7856,861.7891,61.7856,865.7891,57.7856,861.7891" style="stroke:#000000;stroke-width:1;"/><line style="stroke:#000000;stroke-width:1;stroke-dasharray:2,2;" x1="55.7856" x2="482.7715" y1="861.7891" y2="861.7891"/><text fill="#000000" font-family="Verdana" font-size="13" lengthAdjust="spacing" textLength="138.4932" x="67.7856" y="856.7231">Internal API response</text></g><g class="message" data-entity-1="part1" data-entity-2="part4" id="msg14"><polygon fill="#000000" points="466.7715,886.9219,476.7715,890.9219,466.7715,894.9219,470.7715,890.9219" style="stroke:#000000;stroke-width:1;"/><line style="stroke:#000000;stroke-width:1;" x1="50.7856" x2="472.7715" y1="890.9219" y2="890.9219"/><text fill="#000000" font-family="Verdana" font-size="13" lengthAdjust="spacing" textLength="264.1958" x="57.7856" y="885.856">mysql -h 10.10.3.20 -u root -p'password'</text></g><g class="message" data-entity-1="part4" data-entity-2="part7" id="msg15"><polygon fill="#000000" points="830.9746,916.0547,840.9746,920.0547,830.9746,924.0547,834.9746,920.0547" style="stroke:#000000;stroke-width:1;"/><line style="stroke:#000000;stroke-width:1;" x1="488.7715" x2="836.9746" y1="920.0547" y2="920.0547"/><text fill="#000000" font-family="Verdana" font-size="13" lengthAdjust="spacing" textLength="120.396" x="495.7715" y="914.9888">MySQL connection</text></g><path d="M727,933.0547 L727,958.0547 L966,958.0547 L966,943.0547 L956,933.0547 L727,933.0547" fill="#FFFFFF" style="stroke:#000000;stroke-width:1;"/><path d="M956,933.0547 L956,943.0547 L966,943.0547 L956,933.0547" fill="#FFFFFF" style="stroke:#000000;stroke-width:1;"/><text fill="#000000" font-family="Verdana" font-size="13" lengthAdjust="spacing" textLength="218.9941" x="733" y="950.1216">[VULN] Root password 'password'</text><g class="message" data-entity-1="part7" data-entity-2="part4" id="msg16"><polygon fill="#000000" points="499.7715,980.3203,489.7715,984.3203,499.7715,988.3203,495.7715,984.3203" style="stroke:#000000;stroke-width:1;"/><line style="stroke:#000000;stroke-width:1;stroke-dasharray:2,2;" x1="493.7715" x2="841.9746" y1="984.3203" y2="984.3203"/><text fill="#000000" font-family="Verdana" font-size="13" lengthAdjust="spacing" textLength="49.8862" x="505.7715" y="979.2544">mysql&gt;</text></g><g class="message" data-entity-1="part4" data-entity-2="part1" id="msg17"><polygon fill="#000000" points="61.7856,1009.4531,51.7856,1013.4531,61.7856,1017.4531,57.7856,1013.4531" style="stroke:#000000;stroke-width:1;"/><line style="stroke:#000000;stroke-width:1;stroke-dasharray:2,2;" x1="55.7856" x2="482.7715" y1="1013.4531" y2="1013.4531"/><text fill="#000000" font-family="Verdana" font-size="13" lengthAdjust="spacing" textLength="96.3955" x="67.7856" y="1008.3872">Database shell</text></g><g class="message" data-entity-1="part1" data-entity-2="part4" id="msg18"><polygon fill="#000000" points="466.7715,1038.5859,476.7715,1042.5859,466.7715,1046.5859,470.7715,1042.5859" style="stroke:#000000;stroke-width:1;"/><line style="stroke:#000000;stroke-width:1;" x1="50.7856" x2="472.7715" y1="1042.5859" y2="1042.5859"/><text fill="#000000" font-family="Verdana" font-size="13" lengthAdjust="spacing" textLength="408.9858" x="57.7856" y="1037.52">ldapsearch -x -H ldap://10.10.3.30 -b "dc=rangecorp,dc=local"</text></g><g class="message" data-entity-1="part4" data-entity-2="part8" id="msg19"><polygon fill="#000000" points="950.6758,1067.7188,960.6758,1071.7188,950.6758,1075.7188,954.6758,1071.7188" style="stroke:#000000;stroke-width:1;"/><line style="stroke:#000000;stroke-width:1;" x1="488.7715" x2="956.6758" y1="1071.7188" y2="1071.7188"/><text fill="#000000" font-family="Verdana" font-size="13" lengthAdjust="spacing" textLength="146.3262" x="495.7715" y="1066.6528">LDAP anonymous bind</text></g><path d="M849,1084.7188 L849,1109.7188 L1085,1109.7188 L1085,1094.7188 L1075,1084.7188 L849,1084.7188" fill="#FFFFFF" style="stroke:#000000;stroke-width:1;"/><path d="M1075,1084.7188 L1075,1094.7188 L1085,1094.7188 L1075,1084.7188" fill="#FFFFFF" style="stroke:#000000;stroke-width:1;"/><text fill="#000000" font-family="Verdana" font-size="13" lengthAdjust="spacing" textLength="215.2363" x="855" y="1101.7856">[VULN] Anonymous bind enabled</text><g class="message" data-entity-1="part8" data-entity-2="part4" id="msg20"><polygon fill="#000000" points="499.7715,1131.9844,489.7715,1135.9844,499.7715,1139.9844,495.7715,1135.9844" style="stroke:#000000;stroke-width:1;"/><line style="stroke:#000000;stroke-width:1;stroke-dasharray:2,2;" x1="493.7715" x2="966.6758" y1="1135.9844" y2="1135.9844"/><text fill="#000000" font-family="Verdana" font-size="13" lengthAdjust="spacing" textLength="103.5303" x="505.7715" y="1130.9185">Directory listing</text></g><g class="message" data-entity-1="part4" data-entity-2="part1" id="msg21"><polygon fill="#000000" points="61.7856,1161.1172,51.7856,1165.1172,61.7856,1169.1172,57.7856,1165.1172" style="stroke:#000000;stroke-width:1;"/><line style="stroke:#000000;stroke-width:1;stroke-dasharray:2,2;" x1="55.7856" x2="482.7715" y1="1165.1172" y2="1165.1172"/><text fill="#000000" font-family="Verdana" font-size="13" lengthAdjust="spacing" textLength="150.5283" x="67.7856" y="1160.0513">User enumeration data</text></g><?plantuml-src ZLLHRzem47xFhxZbOGMf0GhT2ngLw5hMJgnZerqVrZsOn2LUZUtPfXHD--yxcuGuRLGD8K7EtztvlllkyiRcT4L1SS9455bcEOLJOYoJ0iPfIes1jt15xKRg1pWNwnNLn1r64Kcjr13Vue79fReJCw8jIvaYmiP03AmDrP6gZ11F2EFzKoByyNr_KJ-zcTp2X6cw8Ppl0jnlweZYOdVYgDTntywWvu6BdRqE_hHcAOMvlrg9x-_mlznH7NqfBDM2S1ZFBajylyGJnUhepzlvrsa96vImx5b1NnGLqxFnh08Mz-KPKL4q6i5yVW5JkMG2HgCeSeH1SkBgXg4_in8UbKcO6lRnuoXdZyHIpun38HXfHF27dAOFeDqPPojcAwYZsM6IVU0nvt83hVTmr0DYBLqfQzfHHcikHVI2MVIQIBqXEdFNgeANn9SmdyHLCOGPCGP5au7I4ZFiYwiY4gHxQonqotz7_K4a98QLZuYjW3--tqolVbOHoThcG0LPS9hT2UpmccUmeF10juaKVDjqdNbEEGVY5HtMMbOGc1ovhZaDgeTxB6O_7s7FgjkA5L6G606bw7hT_Z6KYWeU1lxX9PclK51cJgKGDBKqSmePJwTW6TKcvCBGvOgYfhCcCiwOILq2zC-biMPOJGXgeeKTUzgsmwc1bX-PTZWPqCAn22m3PrbYpi1sZBPiqGudnHc05TFM3aS3McuksatTSUqumzMGMgW6TRUTcfkGhZM7t5erx7QhAtUNrBuYtXCtwEXySNqzWu_drr37kotW04ajqvzOQeOJ70yXBZEzwyM7qEbq_eQrEFU6NeIB1pGrIWf36pbuMULgQtvpI788w4tMeAMqaAW3LGpCmQirPsv_-8LMoie1zXwur2f1UcoXnMykIva2WcJPuXb5_fedZK8abg0PvUh6CwmQq_uV1qupXXATvf0yGNBX3VkkUrqb2uYpTAI9MD9KQdM83rocXCUl4kC2OGAtmN53IR5ToJM-QvZ8AZU_oIj-2fU2eN7DgTnOaGVL6TffM-ejRc-qYMLOlC_HGDwD-w71SigGpIRM_W40?></g></svg>