<?plantuml 1.2026.2?><svg xmlns="http://www.w3.org/2000/svg" xmlns:xlink="http://www.w3.org/1999/xlink" contentStyleType="text/css" data-diagram-type="SEQUENCE" height="791px" preserveAspectRatio="none" style="width:837px;height:791px;background:#FFFFFF;" version="1.1" viewBox="0 0 837 791" width="837px" zoomAndPan="magnify"><title>Normal HTTP Request Flow - Juice Shop Access</title><defs/><g><text fill="#000000" font-family="Verdana" font-size="22" font-weight="bold" lengthAdjust="spacing" textLength="582.7314" x="125.7" y="35.4209">Normal HTTP Request Flow - Juice Shop Access</text><g><title>Nginx Proxy</title><rect fill="#FFFFFF" height="145.6641" style="stroke:#000000;stroke-width:1;" width="10" x="248.2534" y="176.3359"/></g><g><title>Nginx Proxy</title><rect fill="#FFFFFF" height="145.6641" style="stroke:#000000;stroke-width:1;" width="10" x="248.2534" y="479.6641"/></g><g><title>Juice Shop</title><rect fill="#FFFFFF" height="87.3984" style="stroke:#000000;stroke-width:1;" width="10" x="498.082" y="205.4688"/></g><g><title>Juice Shop</title><rect fill="#FFFFFF" height="87.3984" style="stroke:#000000;stroke-width:1;" width="10" x="498.082" y="508.7969"/></g><g><title>MySQL</title><rect fill="#FFFFFF" height="29.1328" style="stroke:#000000;stroke-width:1;" width="10" x="779.2808" y="234.6016"/></g><g><title>MySQL</title><rect fill="#FFFFFF" height="29.1328" style="stroke:#000000;stroke-width:1;" width="10" x="779.2808" y="537.9297"/></g><g class="participant-lifeline" data-entity-uid="part1" data-qualified-name="user" id="part1-lifeline"><g><title>Workshop</title><rect fill="#000000" fill-opacity="0.00000" height="548.3906" width="8" x="73.7856" y="145.2031"/><line style="stroke:#000000;stroke-width:1;stroke-dasharray:5,5;" x1="77" x2="77" y1="145.2031" y2="693.5938"/></g></g><g class="participant-lifeline" data-entity-uid="part2" data-qualified-name="proxy" id="part2-lifeline"><g><title>Nginx Proxy</title><rect fill="#000000" fill-opacity="0.00000" height="548.3906" width="8" x="249.2534" y="145.2031"/><line style="stroke:#000000;stroke-width:1;stroke-dasharray:5,5;" x1="253.1577" x2="253.1577" y1="145.2031" y2="693.5938"/></g></g><g class="participant-lifeline" data-entity-uid="part3" data-qualified-name="juice" id="part3-lifeline"><g><title>Juice Shop</title><rect fill="#000000" fill-opacity="0.00000" height="548.3906" width="8" x="499.082" y="145.2031"/><line style="stroke:#000000;stroke-width:1;stroke-dasharray:5,5;" x1="502.2314" x2="502.2314" y1="145.2031" y2="693.5938"/></g></g><g class="participant-lifeline" data-entity-uid="part4" data-qualified-name="db" id="part4-lifeline"><g><title>MySQL</title><rect fill="#000000" fill-opacity="0.00000" height="548.3906" width="8" x="780.2808" y="145.2031"/><line style="stroke:#000000;stroke-width:1;stroke-dasharray:5,5;" x1="783.4302" x2="783.4302" y1="145.2031" y2="693.5938"/></g></g><g class="participant participant-head" data-entity-uid="part1" data-qualified-name="user" id="part1-head"><text fill="#000000" font-family="Verdana" font-size="14" lengthAdjust="spacing" textLength="69.8906" x="39.8403" y="125.6045">Workshop</text><text fill="#000000" font-family="Verdana" font-size="14" lengthAdjust="spacing" textLength="75.5713" x="37" y="141.9014">Participant</text><ellipse cx="77.7856" cy="60.6094" fill="#FFFFFF" rx="8" ry="8" style="stroke:#000000;stroke-width:1;"/><path d="M77.7856,68.6094 L77.7856,95.6094 M64.7856,76.6094 L90.7856,76.6094 M77.7856,95.6094 L64.7856,110.6094 M77.7856,95.6094 L90.7856,110.6094" fill="none" style="stroke:#000000;stroke-width:1;"/></g><g class="participant participant-tail" data-entity-uid="part1" data-qualified-name="user" id="part1-tail"><text fill="#000000" font-family="Verdana" font-size="14" lengthAdjust="spacing" textLength="69.8906" x="39.8403" y="705.5889">Workshop</text><text fill="#000000" font-family="Verdana" font-size="14" lengthAdjust="spacing" textLength="75.5713" x="37" y="721.8857">Participant</text><ellipse cx="77.7856" cy="734.1875" fill="#FFFFFF" rx="8" ry="8" style="stroke:#000000;stroke-width:1;"/><path d="M77.7856,742.1875 L77.7856,769.1875 M64.7856,750.1875 L90.7856,750.1875 M77.7856,769.1875 L64.7856,784.1875 M77.7856,769.1875 L90.7856,784.1875" fill="none" style="stroke:#000000;stroke-width:1;"/></g><g class="participant participant-head" data-entity-uid="part2" data-qualified-name="proxy" id="part2-head"><rect fill="#FFFFFF" height="46.5938" rx="2.5" ry="2.5" style="stroke:#000000;stroke-width:1;" width="98.1914" x="204.1577" y="97.6094"/><text fill="#000000" font-family="Verdana" font-size="14" lengthAdjust="spacing" textLength="84.1914" x="211.1577" y="117.6045">Nginx Proxy</text><text fill="#000000" font-family="Verdana" font-size="14" lengthAdjust="spacing" textLength="75.7012" x="215.4028" y="133.9014">10.10.1.10</text></g><g class="participant participant-tail" data-entity-uid="part2" data-qualified-name="proxy" id="part2-tail"><rect fill="#FFFFFF" height="46.5938" rx="2.5" ry="2.5" style="stroke:#000000;stroke-width:1;" width="98.1914" x="204.1577" y="692.5938"/><text fill="#000000" font-family="Verdana" font-size="14" lengthAdjust="spacing" textLength="84.1914" x="211.1577" y="712.5889">Nginx Proxy</text><text fill="#000000" font-family="Verdana" font-size="14" lengthAdjust="spacing" textLength="75.7012" x="215.4028" y="728.8857">10.10.1.10</text></g><g class="participant participant-head" data-entity-uid="part3" data-qualified-name="juice" id="part3-head"><rect fill="#FFFFFF" height="46.5938" rx="2.5" ry="2.5" style="stroke:#000000;stroke-width:1;" width="89.7012" x="458.2314" y="97.6094"/><text fill="#000000" font-family="Verdana" font-size="14" lengthAdjust="spacing" textLength="72.8643" x="466.6499" y="117.6045">Juice Shop</text><text fill="#000000" font-family="Verdana" font-size="14" lengthAdjust="spacing" textLength="75.7012" x="465.2314" y="133.9014">10.10.1.20</text></g><g class="participant participant-tail" data-entity-uid="part3" data-qualified-name="juice" id="part3-tail"><rect fill="#FFFFFF" height="46.5938" rx="2.5" ry="2.5" style="stroke:#000000;stroke-width:1;" width="89.7012" x="458.2314" y="692.5938"/><text fill="#000000" font-family="Verdana" font-size="14" lengthAdjust="spacing" textLength="72.8643" x="466.6499" y="712.5889">Juice Shop</text><text fill="#000000" font-family="Verdana" font-size="14" lengthAdjust="spacing" textLength="75.7012" x="465.2314" y="728.8857">10.10.1.20</text></g><g class="participant participant-head" data-entity-uid="part4" data-qualified-name="db" id="part4-head"><text fill="#000000" font-family="Verdana" font-size="14" lengthAdjust="spacing" textLength="48.0703" x="757.2456" y="125.6045">MySQL</text><text fill="#000000" font-family="Verdana" font-size="14" lengthAdjust="spacing" textLength="75.7012" x="743.4302" y="141.9014">10.10.2.40</text><path d="M766.2808,76.6094 C766.2808,66.6094 784.2808,66.6094 784.2808,66.6094 C784.2808,66.6094 802.2808,66.6094 802.2808,76.6094 L802.2808,102.6094 C802.2808,112.6094 784.2808,112.6094 784.2808,112.6094 C784.2808,112.6094 766.2808,112.6094 766.2808,102.6094 L766.2808,76.6094" fill="#FFFFFF" style="stroke:#000000;stroke-width:1;"/><path d="M766.2808,76.6094 C766.2808,86.6094 784.2808,86.6094 784.2808,86.6094 C784.2808,86.6094 802.2808,86.6094 802.2808,76.6094" fill="none" style="stroke:#000000;stroke-width:1;"/></g><g class="participant participant-tail" data-entity-uid="part4" data-qualified-name="db" id="part4-tail"><text fill="#000000" font-family="Verdana" font-size="14" lengthAdjust="spacing" textLength="48.0703" x="757.2456" y="705.5889">MySQL</text><text fill="#000000" font-family="Verdana" font-size="14" lengthAdjust="spacing" textLength="75.7012" x="743.4302" y="721.8857">10.10.2.40</text><path d="M766.2808,735.1875 C766.2808,725.1875 784.2808,725.1875 784.2808,725.1875 C784.2808,725.1875 802.2808,725.1875 802.2808,735.1875 L802.2808,761.1875 C802.2808,771.1875 784.2808,771.1875 784.2808,771.1875 C784.2808,771.1875 766.2808,771.1875 766.2808,761.1875 L766.2808,735.1875" fill="#FFFFFF" style="stroke:#000000;stroke-width:1;"/><path d="M766.2808,735.1875 C766.2808,745.1875 784.2808,745.1875 784.2808,745.1875 C784.2808,745.1875 802.2808,745.1875 802.2808,735.1875" fill="none" style="stroke:#000000;stroke-width:1;"/></g><g><title>Nginx Proxy</title><rect fill="#FFFFFF" height="145.6641" style="stroke:#000000;stroke-width:1;" width="10" x="248.2534" y="176.3359"/></g><g><title>Nginx Proxy</title><rect fill="#FFFFFF" height="145.6641" style="stroke:#000000;stroke-width:1;" width="10" x="248.2534" y="479.6641"/></g><g><title>Juice Shop</title><rect fill="#FFFFFF" height="87.3984" style="stroke:#000000;stroke-width:1;" width="10" x="498.082" y="205.4688"/></g><g><title>Juice Shop</title><rect fill="#FFFFFF" height="87.3984" style="stroke:#000000;stroke-width:1;" width="10" x="498.082" y="508.7969"/></g><g><title>MySQL</title><rect fill="#FFFFFF" height="29.1328" style="stroke:#000000;stroke-width:1;" width="10" x="779.2808" y="234.6016"/></g><g><title>MySQL</title><rect fill="#FFFFFF" height="29.1328" style="stroke:#000000;stroke-width:1;" width="10" x="779.2808" y="537.9297"/></g><g class="message" data-entity-1="part1" data-entity-2="part2" id="msg1"><polygon fill="#000000" points="236.2534,172.3359,246.2534,176.3359,236.2534,180.3359,240.2534,176.3359" style="stroke:#000000;stroke-width:1;"/><line style="stroke:#000000;stroke-width:1;" x1="77.7856" x2="242.2534" y1="176.3359" y2="176.3359"/><text fill="#000000" font-family="Verdana" font-size="13" lengthAdjust="spacing" textLength="151.4678" x="84.7856" y="171.27">HTTP GET http://vps-ip/</text></g><g class="message" data-entity-1="part2" data-entity-2="part3" id="msg2"><polygon fill="#000000" points="486.082,201.4688,496.082,205.4688,486.082,209.4688,490.082,205.4688" style="stroke:#000000;stroke-width:1;"/><line style="stroke:#000000;stroke-width:1;" x1="258.2534" x2="492.082" y1="205.4688" y2="205.4688"/><text fill="#000000" font-family="Verdana" font-size="13" lengthAdjust="spacing" textLength="220.8286" x="265.2534" y="200.4028">proxy_pass http://juiceshop:3000/</text></g><g class="message" data-entity-1="part3" data-entity-2="part4" id="msg3"><polygon fill="#000000" points="767.2808,230.6016,777.2808,234.6016,767.2808,238.6016,771.2808,234.6016" style="stroke:#000000;stroke-width:1;"/><line style="stroke:#000000;stroke-width:1;" x1="508.082" x2="773.2808" y1="234.6016" y2="234.6016"/><text fill="#000000" font-family="Verdana" font-size="13" lengthAdjust="spacing" textLength="122.5288" x="515.082" y="229.5356">SELECT products...</text></g><g class="message" data-entity-1="part4" data-entity-2="part3" id="msg4"><polygon fill="#000000" points="519.082,259.7344,509.082,263.7344,519.082,267.7344,515.082,263.7344" style="stroke:#000000;stroke-width:1;"/><line style="stroke:#000000;stroke-width:1;stroke-dasharray:2,2;" x1="513.082" x2="783.2808" y1="263.7344" y2="263.7344"/><text fill="#000000" font-family="Verdana" font-size="13" lengthAdjust="spacing" textLength="83.2876" x="525.082" y="258.6685">Product data</text></g><g class="message" data-entity-1="part3" data-entity-2="part2" id="msg5"><polygon fill="#000000" points="269.2534,288.8672,259.2534,292.8672,269.2534,296.8672,265.2534,292.8672" style="stroke:#000000;stroke-width:1;"/><line style="stroke:#000000;stroke-width:1;stroke-dasharray:2,2;" x1="263.2534" x2="502.082" y1="292.8672" y2="292.8672"/><text fill="#000000" font-family="Verdana" font-size="13" lengthAdjust="spacing" textLength="99.6392" x="275.2534" y="287.8013">HTML response</text></g><g class="message" data-entity-1="part2" data-entity-2="part1" id="msg6"><polygon fill="#000000" points="88.7856,318,78.7856,322,88.7856,326,84.7856,322" style="stroke:#000000;stroke-width:1;"/><line style="stroke:#000000;stroke-width:1;stroke-dasharray:2,2;" x1="82.7856" x2="252.2534" y1="322" y2="322"/><text fill="#000000" font-family="Verdana" font-size="13" lengthAdjust="spacing" textLength="117.7744" x="94.7856" y="316.9341">HTTP 200 + HTML</text></g><path d="M10,335 L10,360 L322,360 L322,345 L312,335 L10,335" fill="#FFFFFF" style="stroke:#000000;stroke-width:1;"/><path d="M312,335 L312,345 L322,345 L312,335" fill="#FFFFFF" style="stroke:#000000;stroke-width:1;"/><text fill="#000000" font-family="Verdana" font-size="13" lengthAdjust="spacing" textLength="291.7002" x="16" y="352.0669">[VULN] Server header exposes nginx version</text><path d="M198,370.1328 L198,395.1328 L556,395.1328 L556,380.1328 L546,370.1328 L198,370.1328" fill="#FFFFFF" style="stroke:#000000;stroke-width:1;"/><path d="M546,370.1328 L546,380.1328 L556,380.1328 L546,370.1328" fill="#FFFFFF" style="stroke:#000000;stroke-width:1;"/><text fill="#000000" font-family="Verdana" font-size="13" lengthAdjust="spacing" textLength="273.5332" x="236.1208" y="387.1997">[VULN] No rate limiting on /rest/user/login</text><rect fill="#FFFFFF" height="3" style="stroke:#FFFFFF;stroke-width:1;" width="825.1313" x="5" y="420.832"/><line style="stroke:#000000;stroke-width:0.5;" x1="5" x2="830.1313" y1="420.832" y2="420.832"/><line style="stroke:#000000;stroke-width:0.5;" x1="5" x2="830.1313" y1="423.832" y2="423.832"/><rect fill="#FFFFFF" height="23.1328" style="stroke:#000000;stroke-width:1;" width="135.6084" x="349.7615" y="410.2656"/><text fill="#000000" font-family="Verdana" font-size="13" font-weight="bold" lengthAdjust="spacing" textLength="117.0825" x="355.7615" y="426.3325">User Login Flow</text><g class="message" data-entity-1="part1" data-entity-2="part2" id="msg7"><polygon fill="#000000" points="236.2534,475.6641,246.2534,479.6641,236.2534,483.6641,240.2534,479.6641" style="stroke:#000000;stroke-width:1;"/><line style="stroke:#000000;stroke-width:1;" x1="77.7856" x2="242.2534" y1="479.6641" y2="479.6641"/><text fill="#000000" font-family="Verdana" font-size="13" lengthAdjust="spacing" textLength="136.7729" x="84.7856" y="459.4653">POST /rest/user/login</text><text fill="#000000" font-family="Verdana" font-size="13" lengthAdjust="spacing" textLength="122.605" x="84.7856" y="474.5981">{email, password}</text></g><g class="message" data-entity-1="part2" data-entity-2="part3" id="msg8"><polygon fill="#000000" points="486.082,504.7969,496.082,508.7969,486.082,512.7969,490.082,508.7969" style="stroke:#000000;stroke-width:1;"/><line style="stroke:#000000;stroke-width:1;" x1="258.2534" x2="492.082" y1="508.7969" y2="508.7969"/><text fill="#000000" font-family="Verdana" font-size="13" lengthAdjust="spacing" textLength="142.6064" x="265.2534" y="503.731">Forward login request</text></g><g class="message" data-entity-1="part3" data-entity-2="part4" id="msg9"><polygon fill="#000000" points="767.2808,533.9297,777.2808,537.9297,767.2808,541.9297,771.2808,537.9297" style="stroke:#000000;stroke-width:1;"/><line style="stroke:#000000;stroke-width:1;" x1="508.082" x2="773.2808" y1="537.9297" y2="537.9297"/><text fill="#000000" font-family="Verdana" font-size="13" lengthAdjust="spacing" textLength="252.1987" x="515.082" y="532.8638">SELECT * FROM Users WHERE email=?</text></g><g class="message" data-entity-1="part4" data-entity-2="part3" id="msg10"><polygon fill="#000000" points="519.082,563.0625,509.082,567.0625,519.082,571.0625,515.082,567.0625" style="stroke:#000000;stroke-width:1;"/><line style="stroke:#000000;stroke-width:1;stroke-dasharray:2,2;" x1="513.082" x2="783.2808" y1="567.0625" y2="567.0625"/><text fill="#000000" font-family="Verdana" font-size="13" lengthAdjust="spacing" textLength="140.3467" x="525.082" y="561.9966">User record (if exists)</text></g><g class="message" data-entity-1="part3" data-entity-2="part2" id="msg11"><polygon fill="#000000" points="269.2534,592.1953,259.2534,596.1953,269.2534,600.1953,265.2534,596.1953" style="stroke:#000000;stroke-width:1;"/><line style="stroke:#000000;stroke-width:1;stroke-dasharray:2,2;" x1="263.2534" x2="502.082" y1="596.1953" y2="596.1953"/><text fill="#000000" font-family="Verdana" font-size="13" lengthAdjust="spacing" textLength="206.3306" x="275.2534" y="591.1294">JWT token (signed with 'secret')</text></g><g class="message" data-entity-1="part2" data-entity-2="part1" id="msg12"><polygon fill="#000000" points="88.7856,621.3281,78.7856,625.3281,88.7856,629.3281,84.7856,625.3281" style="stroke:#000000;stroke-width:1;"/><line style="stroke:#000000;stroke-width:1;stroke-dasharray:2,2;" x1="82.7856" x2="252.2534" y1="625.3281" y2="625.3281"/><text fill="#000000" font-family="Verdana" font-size="13" lengthAdjust="spacing" textLength="106.228" x="94.7856" y="620.2622">HTTP 200 + JWT</text></g><path d="M363,638.3281 L363,678.3281 L642,678.3281 L642,648.3281 L632,638.3281 L363,638.3281" fill="#FFFFFF" style="stroke:#000000;stroke-width:1;"/><path d="M632,638.3281 L632,648.3281 L642,648.3281 L632,638.3281" fill="#FFFFFF" style="stroke:#000000;stroke-width:1;"/><text fill="#000000" font-family="Verdana" font-size="13" lengthAdjust="spacing" textLength="258.4639" x="369" y="655.395">[VULN] JWT secret is hardcoded 'secret'</text><text fill="#000000" font-family="Verdana" font-size="13" lengthAdjust="spacing" textLength="148.313" x="369" y="670.5278">Token forgery possible</text><?plantuml-src bLDTRn9157sVNt7bfQq2kw9F96YC0Pk6KeIjF8Wnm-ujZ5rcnhd3Lup_tVbWmzOchIO4bfbpxZddthilx0hN2BhaGZ9cXIqHHigiUGcNMJQ62VxS85aOb6e7BRZQY1nXkb8QFkGv4Z76SwiCD6RAt9CxdyinDrRaGdDf6y09DeI6wTCXD4PB8VSmDcf_cClNQTj_t5T0Qt_w47uIFQ4x4Vt3Nx62MxxWXD2uFam_3ojKf_qseee5Ozu5jDx5-j2DwJxrCrXPgxj9ijNK4ZhnSSIMMwoC1BZZ1IN72mVVDIUgcE76H---ITEqLY6QYqHNeLWu-hG_x7_CV9LYarjgjzidlBFfCAsQs3Z2m0Ta1TQHnx8F4bqFmI1f9GdhwEZZcCGHGYkE7UYaARmAr3eZPcTIkMUrTMXFQLP2Nx_S3aVVO8h6NwsG5-u7zreH4iWmMtT1GibQXK1kLi6E9KOAZDShnLfO8PUW92GkWasyO5AgfT_ANWzklUMX_nitiTTxFD7npJHxn9xBNxZceco27zbEcUBtioCUABFZfe1Gm7Kql07_DDQNC9ZSN0Ut1BFB_gGFGRtt_gafXt06SsSEpiMTQwKWInVF3lngbe5LzoZXdCHIOW4xOLTmHfWRj6SN_xS3hjgJA_3NwBnu50BXNWNNhrmLpaAbFfTPi7Qdp1BD0Tnsa5YKoFu0?></g></svg>